<?xml version="1.0" standalone="no"?>
<!DOCTYPE svg PUBLIC "-//W3C//DTD SVG 1.1//EN" "http://www.w3.org/Graphics/SVG/1.1/DTD/svg11.dtd" >
<svg xmlns="http://www.w3.org/2000/svg" xmlns:xlink="http://www.w3.org/1999/xlink" version="1.1">
<metadata>
Created by FontForge 20170731 at Fri Nov 18 00:12:02 2022
 By Aleksey,,,
TypeJuiceTM 2021
</metadata>
<defs>
<font id="UnisonPro-BoldRound" horiz-adv-x="2189" >
  <font-face 
    font-family="Unison Pro Bold Round"
    font-weight="702"
    font-stretch="normal"
    units-per-em="2048"
    panose-1="1 0 0 0 0 0 0 0 0 0"
    ascent="1638"
    descent="-410"
    x-height="1434"
    cap-height="1434"
    bbox="-143.5 -475.267 3574 1872"
    underline-thickness="102"
    underline-position="-307"
    unicode-range="U+000A-F009"
  />
<missing-glyph horiz-adv-x="1079" 
d="M205 1434h874v-1434h-874v1434zM262 1393l379 -633l381 633h-760zM616 717l-368 614v-1231zM643 674l-379 -631h758zM668 717l370 -621v1239z" />
    <glyph glyph-name=".notdef" horiz-adv-x="1079" 
d="M205 1434h874v-1434h-874v1434zM262 1393l379 -633l381 633h-760zM616 717l-368 614v-1231zM643 674l-379 -631h758zM668 717l370 -621v1239z" />
    <glyph glyph-name=".null" horiz-adv-x="0" 
 />
    <glyph glyph-name=".null" horiz-adv-x="0" 
 />
    <glyph glyph-name="nonmarkingreturn" unicode="&#xa;" horiz-adv-x="0" 
 />
    <glyph glyph-name="space" unicode=" " horiz-adv-x="1079" 
 />
    <glyph glyph-name="exclam" unicode="!" horiz-adv-x="651" 
d="M596 1432q23 0 39 -16.5t16 -39.5v-497v-7l-26 -264q-3 -22 -18.5 -36.5t-37.5 -14.5h-274q-22 0 -38 14.5t-17 36.5l-27 264v7v497q0 23 16 39.5t39 16.5h328zM563 317q23 0 39 -16t16 -39v-207q0 -23 -16 -39t-39 -16h-262q-23 0 -40 16t-17 39v207q0 23 17 39t40 16
h262z" />
    <glyph glyph-name="quotedbl" unicode="&#x22;" horiz-adv-x="1060" 
d="M522 1432q23 0 39.5 -16.5t16.5 -39.5v-174q0 -8 -3 -14l-67 -270q-4 -19 -19 -30t-34 -11h-193q-19 0 -34 11t-19 30l-68 270q-2 4 -2 14v174q0 23 16.5 39.5t39.5 16.5h327zM1004 1432q23 0 39 -16.5t16 -39.5v-174q0 -10 -2 -14l-68 -270q-4 -19 -19 -30t-34 -11h-193
q-19 0 -34 11t-19 30l-67 270q-2 4 -2 14v174q0 23 16 39.5t39 16.5h328z" />
    <glyph glyph-name="numbersign" unicode="#" horiz-adv-x="1599" 
d="M1440 852q-23 0 -39.5 -17t-16.5 -40v-156q0 -23 16.5 -40t39.5 -17h104q23 0 39 -16.5t16 -39.5v-151q0 -24 -16 -41t-39 -17h-104q-23 0 -39.5 -16t-16.5 -39v-207q0 -23 -16 -39t-39 -16h-233q-23 0 -39.5 16t-16.5 39v207q0 23 -16 39t-39 16h-199q-23 0 -40 -16
t-17 -39v-207q0 -23 -16 -39t-39 -16h-232q-23 0 -40 16t-17 39v207q0 23 -16 39t-39 16h-90q-23 0 -39.5 17.5t-16.5 40.5v151q0 23 16.5 39.5t39.5 16.5h90q23 0 39 17t16 40v156q0 23 -16 40t-39 17h-90q-23 0 -39.5 16t-16.5 39v152q0 23 16.5 40t39.5 17h90q23 0 39 16
t16 39v207q0 23 17 39.5t40 16.5h232q23 0 39 -16.5t16 -39.5v-207q0 -23 17 -39t40 -16h199q23 0 39 16t16 39v207q0 23 16.5 39.5t39.5 16.5h233q23 0 39 -16.5t16 -39.5v-207q0 -23 16.5 -39t39.5 -16h104q23 0 39 -17t16 -40v-152q0 -23 -16 -39t-39 -16h-104zM1040 639
v156q0 23 -16 40t-39 17h-199q-23 0 -40 -17t-17 -40v-156q0 -23 17 -40t40 -17h199q23 0 39 17t16 40z" />
    <glyph glyph-name="dollar" unicode="$" horiz-adv-x="2183" 
d="M1190 877q447 0 592 -13q211 -20 296 -90q81 -68 96 -224q5 -49 5 -112q0 -77 -7 -134.5t-26 -106t-46 -82.5t-73 -60.5t-101 -43t-136 -27.5t-172 -16t-215 -7q-17 0 -28 -11t-11 -28v-80q0 -17 -11.5 -28t-27.5 -11h-266q-17 0 -28 11t-11 28v80q0 17 -11.5 28
t-27.5 11q-162 2 -270.5 9.5t-200.5 26.5t-145.5 48.5t-92 80t-53.5 116.5t-18 161q0 17 11 29t28 12h370q12 0 23 -8t14 -20q19 -70 91.5 -83.5t355.5 -13.5h96q376 0 463.5 16.5t87.5 102.5t-86.5 102.5t-464.5 16.5q-442 0 -583 13q-208 19 -290 88q-79 67 -95 221
q-5 50 -5 116q0 77 7 134.5t26 106t45.5 82.5t72 61t99.5 43.5t134 27.5t169 16t211 7q17 0 28 10.5t11 27.5v84q0 17 11 28t28 11h266q16 0 27.5 -11t11.5 -28v-84q0 -17 11 -27.5t28 -10.5q133 -3 229 -10t179 -20.5t137.5 -36.5t96.5 -55t65.5 -79t36 -105t14.5 -137
q0 -17 -11 -29t-28 -12h-369q-13 0 -24.5 8.5t-14.5 20.5q-18 70 -82.5 83.5t-336.5 12.5h-105q-373 0 -453 -16t-80 -103q0 -86 79 -102t442 -16h12z" />
    <glyph glyph-name="percent" unicode="%" horiz-adv-x="2310" 
d="M2099 1434q38 0 51.5 -35.5t-14.5 -61.5l-1431 -1323q-17 -14 -39 -14h-320q-38 0 -51.5 35t14.5 61l1432 1323q19 15 37 15h321zM1081 1118q0 -98 -20 -161.5t-72 -108.5t-143 -64.5t-232 -19.5t-231.5 19.5t-143 64.5t-72.5 108.5t-20 161.5v0q0 99 20 162.5
t72.5 108.5t143 64.5t231.5 19.5t232 -19.5t143 -64.5t72 -108.5t20 -162.5v0zM428 1118q0 -28 1 -40.5t6 -31.5t16.5 -27.5t31.5 -17.5t52.5 -12.5t78.5 -3.5q55 0 91.5 6.5t56 15t29 28.5t11 35.5t1.5 47.5v0q0 33 -1.5 48.5t-11 36t-29 29t-56 15t-91.5 6.5t-91 -6.5
t-55 -15t-28 -29t-10.5 -35.5t-1.5 -49v0zM1841 670q113 0 193.5 -13.5t134.5 -39t85 -70t43.5 -99.5t12.5 -133v0q0 -99 -20 -162.5t-73 -108.5t-143.5 -64t-232.5 -19q-141 0 -231.5 19t-143 64t-72.5 108.5t-20 162.5v0q0 78 12.5 133.5t43.5 99.5t84.5 69.5t133.5 39
t193 13.5zM2030 315q0 33 -1.5 48t-11 35.5t-29 29t-56 15t-91.5 6.5q-35 0 -61.5 -2t-46 -7.5t-33 -10t-22 -15.5t-13.5 -18.5t-7 -23.5t-2.5 -26t-0.5 -31v0q0 -34 1.5 -49t10.5 -35.5t28 -29t55 -15t91 -6.5t91.5 6.5t56 15t29 29t11 36t1.5 48.5z" />
    <glyph glyph-name="ampersand" unicode="&#x26;" horiz-adv-x="3553" 
d="M3516 834q23 0 40.5 -16.5t17.5 -39.5v-207q0 -23 -16.5 -39t-39.5 -16q-66 0 -341 -1t-373 -1q-146 0 -193 -14q-25 -7 -35 -29.5t-1 -45.5t34 -32q25 -8 105 -35q74 -25 145 -32.5t293 -8.5q23 0 39 -16t16 -39v-207q0 -23 -16 -39t-39 -16q-280 0 -365.5 8.5
t-197.5 48.5q-68 24 -214.5 77t-181.5 65q-29 10 -51 -6q-66 -46 -119 -78q-65 -41 -126.5 -64.5t-149.5 -34.5t-165 -13.5t-228 -2.5h-224q-127 0 -219.5 1.5t-184.5 7t-154.5 13.5t-123.5 22t-99.5 32.5t-73.5 46.5t-54.5 61t-34.5 77.5t-20.5 96t-5.5 117.5v4v4
q1 127 26 210t86.5 139.5t163 79t256.5 18.5q26 -2 43 17.5t13 45.5q-9 74 6 146q12 62 35 108t59 82t93 60.5t126 41t169.5 26t212 13t263.5 3.5q122 0 212 -1.5t179 -6t151.5 -12t123 -20t99.5 -29.5t75.5 -41.5t58 -54t38 -69t24.5 -86t10 -104.5q0 -25 -16.5 -42.5
t-40.5 -17.5h-330q-22 0 -37 13.5t-18 35.5q-6 45 -47 67t-150 32t-332 10q-132 0 -218.5 -2.5t-148 -11t-93 -17.5t-48.5 -30t-20.5 -40.5t-3.5 -56.5q0 -23 5 -37.5t17.5 -29.5t44.5 -31t75.5 -34t123 -47t174.5 -63q58 -21 90 -32q290 -106 348 -127q29 -10 51 6
q36 25 78 54t49 34q136 89 238 120.5t293 31.5h749zM1538 322q29 2 43.5 24.5t7 48t-34.5 35.5q-200 72 -538 199q-6 2 -21 2q-95 0 -160.5 -3t-109.5 -12t-69 -19t-37.5 -30t-15.5 -38t-3 -50q0 -35 4 -55t22 -41t51 -31.5t93 -19.5t146.5 -12t213.5 -3h228q109 0 180 5z
" />
    <glyph glyph-name="quotesingle" unicode="'" horiz-adv-x="577" 
d="M522 1432q23 0 39.5 -16.5t16.5 -39.5v-174q0 -8 -3 -14l-67 -270q-4 -19 -19 -30t-34 -11h-193q-19 0 -34 11t-19 30l-68 270q-2 4 -2 14v174q0 23 16.5 39.5t39.5 16.5h327z" />
    <glyph glyph-name="parenleft" unicode="(" horiz-adv-x="645" 
d="M707 -188q6 -19 -5.5 -35.5t-31.5 -16.5h-246q-24 0 -35 25q-168 407 -168 932t168 932q10 24 35 24h246q20 0 31.5 -16t5.5 -35q-129 -400 -129 -905t129 -905z" />
    <glyph glyph-name="parenright" unicode=")" horiz-adv-x="645" 
d="M397 1649q168 -407 168 -932t-168 -932q-11 -25 -35 -25h-245q-20 0 -31.5 16.5t-5.5 35.5q129 390 129 905t-129 905q-6 19 5.5 35t31.5 16h245q25 0 35 -24z" />
    <glyph glyph-name="asterisk" unicode="*" horiz-adv-x="710" 
d="M694 1182q8 -22 -2.5 -43t-32.5 -27l-6 -2q-28 -9 -36.5 -36t8.5 -50l4 -6q13 -19 9.5 -41.5t-22.5 -36.5l-84 -59q-18 -14 -41 -11t-36 23l-4 4q-17 23 -45.5 23t-45.5 -23l-4 -4q-12 -20 -34.5 -23t-42.5 11l-82 59q-20 13 -23.5 36t10.5 42l2 6q17 23 8.5 50t-34.5 36
l-6 2q-21 6 -32 27t-5 43l33 98q8 22 27.5 32t41.5 3l6 -2q28 -8 51 8.5t23 44.5v6q0 24 16 41t39 17h105q23 0 39 -17t16 -41v-6q0 -28 23 -44.5t49 -8.5l6 2q23 7 43.5 -3t28.5 -32z" />
    <glyph glyph-name="plus" unicode="+" horiz-adv-x="1284" 
d="M1227 889q23 0 39 -16t16 -39v-234q0 -23 -16 -39t-39 -16h-291q-23 0 -39 -16.5t-16 -39.5v-290q0 -23 -16.5 -39.5t-39.5 -16.5h-233q-23 0 -39 16.5t-16 39.5v290q0 23 -16.5 39.5t-39.5 16.5h-291q-23 0 -39 16t-16 39v234q0 23 16 39t39 16h291q23 0 39.5 16
t16.5 39v291q0 23 16 39t39 16h233q23 0 39.5 -16t16.5 -39v-291q0 -23 16 -39t39 -16h291z" />
    <glyph glyph-name="comma" unicode="," horiz-adv-x="536" 
d="M479 358q23 0 39.5 -16t16.5 -39v-303q0 -133 -87 -233.5t-217 -120.5q-23 -4 -41.5 10t-21.5 37l-12 74q-2 21 9.5 38t31.5 23q76 22 112 92q14 28 -2 54t-47 26h-82q-23 0 -39 17t-16 40v246q0 23 16 39t39 16h301z" />
    <glyph glyph-name="hyphenminus" unicode="-" horiz-adv-x="1267" 
d="M1210 889q23 0 39.5 -16t16.5 -39v-234q0 -23 -16.5 -39t-39.5 -16h-1036q-23 0 -39 16t-16 39v234q0 23 16 39t39 16h1036z" />
    <glyph glyph-name="period" unicode="." horiz-adv-x="536" 
d="M479 358q23 0 39.5 -16t16.5 -39v-248q0 -23 -16.5 -39t-39.5 -16h-301q-23 0 -39 16t-16 39v248q0 23 16 39t39 16h301z" />
    <glyph glyph-name="slash" unicode="/" horiz-adv-x="1296" 
d="M1212 1434q32 0 48.5 -28t-0.5 -56l-809 -1323q-17 -27 -48 -27h-327q-32 0 -48 28t1 56l809 1323q14 27 47 27h327z" />
    <glyph glyph-name="zero" unicode="0" horiz-adv-x="2213" 
d="M1219 1473q160 0 260.5 -1t208 -9.5t167.5 -16.5t124.5 -33.5t94.5 -47.5t62.5 -73t42.5 -95t20.5 -127t11.5 -156.5t1 -196.5t-1 -196t-11.5 -157t-20.5 -127.5t-42 -94.5t-62 -72.5t-94.5 -48t-124.5 -34t-167.5 -16t-208 -9.5t-261.5 -1t-261.5 1t-209 9.5
t-168.5 16.5t-125 33.5t-95 47.5t-62.5 73t-43 95t-21 127t-11.5 156.5t-1 196.5q0 122 1 196t12 157t21 127.5t43 95t63 72.5t95 47.5t125 33.5t168 16.5t208.5 9.5t261.5 1zM1217 1114h-1h-1h-1h-1h-1h-1h-1h-1q-288 0 -369 -12q-107 -16 -143 -70q-33 -50 -37 -188
q-1 -38 -1 -127v-39q0 -32 28 -48t56 -1l660 381q37 22 25.5 63t-52.5 41h-159zM1219 319q291 0 373 12q107 15 144 69q33 50 37 185q1 38 1 130v45q0 32 -27.5 48t-56.5 1l-668 -385q-23 -14 -27 -39.5t12.5 -45.5t43.5 -20h168z" />
    <glyph glyph-name="one" unicode="1" horiz-adv-x="1009" 
d="M463 1425q12 9 26 9h369q23 0 39 -16.5t16 -39.5v-1321q0 -23 -16 -40t-39 -17h-328q-23 0 -39 16t-16 39v867q0 33 -28 49.5t-56 -0.5l-115 -66q-20 -12 -41.5 -5.5t-33.5 26.5l-123 213q-12 20 -6 43t26 35z" />
    <glyph glyph-name="two" unicode="2" horiz-adv-x="2172" 
d="M2116 358q23 0 39 -16t16 -39v-248q0 -23 -16 -39t-39 -16h-1852q-23 0 -39 16t-16 39v273q0 84 1.5 126.5t17.5 96.5t36.5 77t76 56t116.5 46.5t178 34.5t240.5 34t322.5 32q367 36 441 52q71 17 85 49q7 17 7 57q0 61 -18 81q-29 31 -154 39q-86 5 -361 5
q-350 0 -428.5 -11t-93.5 -71q-5 -19 -19.5 -31t-33.5 -12h-338q-25 0 -41.5 17.5t-14.5 42.5q3 65 13 115t27.5 92t49.5 72.5t69.5 54t98.5 39t125 26t159.5 16t193 7.5t233.5 2q157 0 270.5 -3.5t216.5 -14t171 -27t126 -44.5t91.5 -64t57 -89t32 -116t8.5 -148
q0 -77 -1.5 -116t-17.5 -88.5t-36 -71t-75 -52.5t-115 -44t-175 -33.5t-236.5 -34t-316.5 -33.5q-28 -3 -110.5 -11.5t-118.5 -13.5q-33 -3 -45 -30.5t3 -54t48 -26.5h1141z" />
    <glyph glyph-name="three" unicode="3" horiz-adv-x="2172" 
d="M2054 688q103 -83 103 -330q0 -194 -96 -279q-91 -81 -318 -103q-153 -15 -576 -15q-424 0 -569 14q-228 22 -320 101q-96 91 -98 282v25q0 23 16.5 39t39.5 16h333q20 0 35.5 -12t20.5 -31q13 -54 105 -65t437 -11q386 0 467.5 16t81.5 103q0 59 -24 80q-34 30 -177 36
q-81 3 -348 3h-155q-23 0 -39.5 16t-16.5 39v209q0 23 16.5 39.5t39.5 16.5h155q345 0 420 10q83 10 101 46q10 19 10 62q0 87 -74.5 103t-433.5 16h-23q-335 0 -424 -11t-102 -65q-5 -19 -19 -31t-34 -12h-334q-23 0 -39 16.5t-16 39.5v24q0 194 92 279q87 81 305 104
q145 15 560 15h1h1h9q420 0 564 -14q223 -22 312 -102q93 -91 95 -282q0 -123 -17.5 -192t-68.5 -109q-22 -17 -21 -43t23 -43z" />
    <glyph glyph-name="four" unicode="4" horiz-adv-x="2158" 
d="M2085 514q23 0 40 -16t17 -39v-207q0 -24 -16.5 -40.5t-40.5 -16.5h-39q-23 0 -39 -16.5t-16 -39.5v-82q0 -23 -16.5 -40t-39.5 -17h-327q-23 0 -39.5 16t-16.5 39v84q0 23 -16 39.5t-39 16.5h-1315q-23 0 -39 16t-16 41v231q0 29 25 47l1386 895q18 9 31 9h364
q23 0 40.5 -16.5t17.5 -39.5v-809q0 -23 16 -39t39 -16h39zM913 616q-35 -23 -22.5 -62.5t53.5 -39.5h553q23 0 39 16t16 39v355q0 34 -29 50t-57 -3z" />
    <glyph glyph-name="five" unicode="5" horiz-adv-x="2197" 
d="M1554 942q73 0 124.5 -1.5t113 -7.5t103.5 -16t88.5 -28t77.5 -43.5t60 -62.5t46 -84.5t27 -109.5t10 -138q0 -87 -11.5 -154t-42.5 -118t-66.5 -86.5t-103.5 -60t-132 -38.5t-173 -21.5t-206.5 -9.5t-251.5 -2q-113 0 -193.5 1t-168.5 4.5t-148 9.5t-124 16.5t-106 25
t-83.5 35t-67.5 47t-47.5 61t-32.5 76t-15 93.5q-1 25 15 42t41 17h372q26 0 43 -20q28 -36 104 -43t325 -7h86q340 0 427 15q86 14 107 58q12 26 12 77q0 74 -29 102q-39 37 -188 46q-94 6 -329 6q-284 0 -379.5 -8t-132.5 -42q-16 -16 -39 -16h-381q-23 0 -39.5 16
t-16.5 39v766q0 23 16.5 39.5t39.5 16.5h1859q23 0 40.5 -16.5t17.5 -39.5v-248q0 -23 -17 -39t-41 -16h-1417q-24 0 -40.5 -16.5t-16.5 -40.5q2 -16 2 -49q0 -25 19 -41.5t44 -12.5q198 27 819 27z" />
    <glyph glyph-name="six" unicode="6" horiz-adv-x="2191" 
d="M1618 877q93 0 159 -4.5t130.5 -16.5t106.5 -34t79.5 -57.5t58 -87t32 -121t11.5 -161.5q0 -81 -10.5 -141.5t-44 -106.5t-65 -77.5t-105.5 -52t-130 -32t-175 -17t-205 -6.5t-252 -1q-430 0 -569 13q-205 20 -290 90q-83 68 -109 227q-19 120 -19 426q0 326 26 451
q30 149 120 213q93 65 316 82q133 10 525 10q427 0 568 -13q213 -21 301 -94.5t105 -244.5q4 -31 5 -68q0 -24 -16.5 -41t-40.5 -17h-336q-20 0 -34 12t-19 31q-14 55 -100.5 65.5t-432.5 10.5q-376 0 -456 -17.5t-90 -113.5q-5 -63 -5 -86q-1 -27 18 -44.5t46 -12.5
q128 21 330.5 29t566.5 8zM1208 319q386 0 466.5 16t80.5 103q0 59 -24 80q-34 30 -178 36q-79 3 -345 3q-357 0 -436 -10q-84 -11 -103 -47q-10 -19 -10 -62q0 -87 81.5 -103t467.5 -16z" />
    <glyph glyph-name="seven" unicode="7" horiz-adv-x="2066" 
d="M2021 1434q23 0 39.5 -16.5t16.5 -39.5v-237q0 -25 -21 -43l-1339 -1086q-15 -12 -35 -12h-424q-39 0 -52 36.5t17 61.5l1131 918q30 25 17 61.5t-52 36.5h-1137q-23 0 -39 17t-16 40v207q0 23 16 39.5t39 16.5h1839z" />
    <glyph glyph-name="eight" unicode="8" 
d="M2087 688q56 -45 79 -126t23 -204q0 -194 -96 -280q-91 -80 -317 -102q-154 -15 -576 -15q-424 0 -569 14q-228 22 -320 101q-96 91 -98 282q0 124 22.5 204.5t79.5 125.5q22 17 22 43t-22 43q-51 40 -67.5 108t-16.5 193q0 195 92 280q88 80 307 103q154 15 570 15
q420 0 564 -14q223 -22 312 -102q93 -91 95 -282q0 -123 -17.5 -192t-68.5 -109q-22 -17 -21 -43t23 -43zM1200 1114h-23q-358 0 -432.5 -16t-74.5 -103q0 -60 24 -80q34 -29 175 -35q74 -3 331 -3q345 0 420 10q83 10 101 46q10 19 10 62q0 87 -74.5 103t-433.5 16h-23z
M1200 319q386 0 467.5 16t81.5 103q0 59 -24 80q-34 30 -177 36q-81 3 -348 3q-356 0 -435 -10q-83 -11 -102 -46q-10 -20 -10 -63q0 -87 80.5 -103t466.5 -16z" />
    <glyph glyph-name="nine" unicode="9" horiz-adv-x="2191" 
d="M786 557q-72 0 -126 2.5t-108.5 9t-93.5 18t-77 30t-63.5 45t-47.5 61.5t-34.5 81.5t-19.5 104.5t-7 129q0 81 10.5 141.5t44 107t65 77.5t105 52t130.5 32.5t175 17t205 6.5t252 1q430 0 569 -13q205 -20 290 -90q83 -68 109 -227q19 -120 19 -426q0 -326 -26 -451
q-30 -149 -120 -213q-93 -65 -316 -82q-133 -10 -525 -10q-427 0 -568 13q-213 21 -301 94.5t-105 244.5q-4 31 -5 68q0 24 16.5 40.5t40.5 16.5h336q20 0 34.5 -12t19.5 -31q14 -55 100 -65.5t432 -10.5q375 0 456 18t91 114q4 50 4 86q1 27 -18 44.5t-46 12.5
q-128 -21 -330.5 -29t-566.5 -8zM1196 1114q-386 0 -466.5 -16t-80.5 -103q0 -59 24 -80q34 -29 177 -35q77 -3 346 -3q358 0 436 10q84 10 103 45q10 19 10 63q0 87 -81.5 103t-467.5 16z" />
    <glyph glyph-name="colon" unicode=":" horiz-adv-x="585" 
d="M528 498q23 0 39.5 -16.5t16.5 -39.5v-247q0 -23 -16.5 -39.5t-39.5 -16.5h-301q-23 0 -39 16.5t-16 39.5v247q0 23 16 39.5t39 16.5h301zM528 1290q23 0 39.5 -16t16.5 -39v-248q0 -23 -16.5 -39t-39.5 -16h-301q-23 0 -39 16t-16 39v248q0 23 16 39t39 16h301z" />
    <glyph glyph-name="semicolon" unicode=";" horiz-adv-x="585" 
d="M528 1075q23 0 39.5 -16t16.5 -39v-248q0 -23 -16.5 -39t-39.5 -16h-301q-23 0 -39 16t-16 39v248q0 23 16 39t39 16h301zM528 358q23 0 39.5 -16t16.5 -39v-303q0 -133 -86.5 -233.5t-216.5 -120.5q-23 -4 -42 10t-22 37l-12 74q-2 21 9.5 38t31.5 23q76 22 112 92
q14 28 -2 54t-47 26h-82q-23 0 -39 17t-16 40v246q0 23 16 39t39 16h301z" />
    <glyph glyph-name="less" unicode="&#x3c;" horiz-adv-x="897" 
d="M524 762q-23 -17 -23 -45t23 -45l326 -234q22 -16 22 -45v-287q0 -35 -30 -51t-58 4l-606 437q-22 19 -22 47v350q0 29 22 45l606 436q28 20 58 4.5t30 -49.5v-287q0 -29 -22 -45z" />
    <glyph glyph-name="equal" unicode="=" horiz-adv-x="1314" 
d="M1260 1171q23 0 39 -17t16 -40v-231q0 -23 -16 -39.5t-39 -16.5h-1037q-23 0 -39 16.5t-16 39.5v231q0 23 16 40t39 17h1037zM1260 610q23 0 39 -16t16 -39v-231q0 -25 -16 -41.5t-39 -16.5h-1037q-23 0 -39 16.5t-16 41.5v231q0 23 16 39t39 16h1037z" />
    <glyph glyph-name="greater" unicode="&#x3e;" horiz-adv-x="897" 
d="M918 893v-350q0 -27 -23 -47l-606 -437q-28 -20 -58 -4t-30 51v287q0 29 22 45l326 234q23 17 23 45t-23 45l-326 235q-22 16 -22 45v287q0 34 30 49.5t58 -4.5l606 -436q23 -16 23 -45z" />
    <glyph glyph-name="question" unicode="?" horiz-adv-x="2076" 
d="M1233 317q23 0 39 -16t16 -39v-207q0 -23 -16 -39t-39 -16h-330q-23 0 -39 16t-16 39v207q0 23 16 39t39 16h330zM1075 1473q157 0 271.5 -3t216.5 -12t170.5 -22.5t126 -36.5t91 -52t57 -71.5t32 -93t8.5 -117.5q0 -78 -1.5 -119t-10 -93.5t-22.5 -78t-44 -58t-70.5 -48
t-104.5 -34.5t-143 -31t-190 -25q-86 -10 -121 -29.5t-43 -52.5q-5 -17 -19.5 -29t-33.5 -12h-340q-25 0 -41 17t-14 40q2 74 8.5 121.5t30 84.5t47 56.5t83 35.5t111.5 23t158 19q117 12 183 24t96.5 30t36.5 34t6 49q0 61 -18 81q-29 31 -154 39q-86 5 -361 5
q-351 0 -430 -11t-94 -71q-5 -19 -19.5 -31t-33.5 -12h-338q-24 0 -40.5 18t-15.5 42q3 65 13 115t27.5 92t49.5 72.5t69.5 54t98.5 39t125 26t159.5 16t193 7.5t233.5 2z" />
    <glyph glyph-name="at" unicode="@" horiz-adv-x="2205" 
d="M1894 557q42 0 51 28t9 122v6v2q0 238 -12 311q-18 110 -83 154q-71 48 -264 58q-98 5 -378 5q-360 0 -468 -12q-148 -17 -203 -77q-52 -56 -62 -197q-5 -67 -5 -240q0 -236 13 -312q19 -109 87 -153q73 -47 271 -57q99 -5 369 -5q63 0 145.5 -0.5t129 -1t104 0t91.5 2.5
t70 6t61 10t44 16q32 16 59 -4q95 -73 111 -86q25 -19 22 -49.5t-31 -44.5q-97 -50 -271.5 -64t-534.5 -14q-161 0 -261.5 1t-209 9.5t-168.5 16.5t-125 33.5t-95 47.5t-62.5 73t-43 95t-21 127t-11.5 156.5t-1 196.5q0 122 1 196t12 157t21 127.5t43 95t63 72.5t95 47.5
t125 33.5t168 16.5t208.5 9.5t261.5 1q160 0 260.5 -1t208 -9.5t167.5 -16.5t124.5 -33.5t94.5 -47.5t62.5 -73t42.5 -95t20.5 -127t11.5 -156.5t1 -196.5q0 -100 -2 -146t-15 -110.5t-39.5 -92t-77.5 -48.5t-128 -21q-96 0 -150 31q-25 16 -53 2q-56 -31 -163.5 -38
t-366.5 -7q-117 0 -210.5 11t-160 30t-115.5 49t-79 64t-48 80t-24.5 91.5t-6.5 102.5q0 83 13 142.5t53.5 116.5t110 92t187 56t280.5 21q321 0 413 -12q122 -16 165 -71q39 -51 44 -184q2 -45 2 -161q0 -55 1 -77t6 -45t15.5 -29.5t30.5 -6.5zM1217 477h9q84 0 119.5 -0.5
t86.5 5t66.5 7.5t40.5 18.5t28 26.5t11 43.5t7.5 57t-0.5 78.5v2v2q0 126 -12 160q-15 47 -71 61q-53 14 -251 14h-1h-1h-1h-1h-1h-1h-1h-1h-1h-1h-1h-1h-1h-1h-1h-1h-1h-1h-1h-1h-1h-1h-1h-1h-1h-1h-1h-1h-1h-1h-4q-100 0 -171.5 -10.5t-115 -29t-68 -49.5t-33 -65
t-8.5 -83t7.5 -82.5t31.5 -65.5t67 -50t115 -29t175 -11z" />
    <glyph glyph-name="A" unicode="A" horiz-adv-x="2131" 
d="M1683 0q-33 0 -49 29l-96 178q-13 29 -49 29h-889q-33 0 -49 -29l-96 -178q-13 -29 -49 -29h-363q-31 0 -47.5 27t-1.5 55l717 1323q16 29 49 29h569q36 0 49 -29l717 -1323q15 -28 -1 -55t-48 -27h-363zM784 637q-14 -28 2.5 -55t47.5 -27h421q32 0 48.5 27t1.5 55
l-211 389q-15 29 -48.5 29t-50.5 -29z" />
    <glyph glyph-name="B" unicode="B" horiz-adv-x="2158" 
d="M2091 723q109 -95 109 -289q0 -66 -3.5 -117.5t-18 -94t-25 -73.5t-43 -55t-52.5 -39.5t-73.5 -26.5t-85.5 -16.5t-109.5 -8t-124.5 -3t-149 -0.5h-1219q-23 0 -39 16t-16 39v1323q0 23 16 39.5t39 16.5h1264q77 0 114.5 -0.5t98.5 -3t89.5 -7.5t73 -15t64.5 -24.5
t48.5 -36t40.5 -51t25.5 -68t18 -86.5t4.5 -108q0 -160 -55 -235q-14 -17 -11.5 -40t19.5 -36zM1706 319q23 0 39 16.5t16 39.5v127q0 23 -16 39t-39 16h-971q-23 0 -39 -16t-16 -39v-127q0 -23 16 -39.5t39 -16.5h971zM1761 932v127q0 23 -16 39t-39 16h-1026v-240h1026
q23 0 39 17t16 41z" />
    <glyph glyph-name="C" unicode="C" horiz-adv-x="2156" 
d="M1741 422q0 23 16 39t39 16h330q25 0 41 -17t14 -42q-6 -84 -17 -143.5t-39 -109t-57.5 -81t-92.5 -56t-123.5 -36.5t-171 -19.5t-214 -9.5t-272.5 -2q-161 0 -261.5 1t-209 9.5t-168.5 16.5t-125 33.5t-95 47.5t-62 73t-42.5 94.5t-21 127t-11.5 157t-1 196.5
q0 122 1 196t11.5 157t21 127t43 95t62.5 73t95 47.5t125 33.5t168 16.5t208.5 9.5t261.5 1q168 0 272 -2t214 -9.5t170.5 -19.5t123.5 -36.5t93 -56t58 -81t39 -109t17 -143.5q2 -25 -14.5 -43.5t-40.5 -18.5h-330q-23 0 -39 17t-16 41v47q0 23 -16 39t-39 16h-996
q-23 0 -39 -16t-16 -39v-684q0 -23 16 -39.5t39 -16.5h424h80h78h414q23 0 39 16.5t16 39.5v47z" />
    <glyph glyph-name="D" unicode="D" horiz-adv-x="2207" 
d="M1239 1434q160 0 260.5 -1t208 -9.5t167.5 -15.5t124.5 -32t94.5 -45.5t62 -69t42.5 -90t21 -120.5t11.5 -148.5t1 -185.5q0 -117 -1 -186t-11.5 -148t-20.5 -120t-42 -89.5t-62 -69t-94.5 -45t-124.5 -32t-167.5 -15.5t-208 -9t-261.5 -1l-942 -2q-23 0 -39 16t-16 39
v1323q0 23 16 39.5t39 16.5h942zM1739 358q23 0 39 16.5t16 39.5v604q0 23 -16 40t-39 17h-1004q-23 0 -39 -17t-16 -40v-604q0 -23 16 -39.5t39 -16.5h1004z" />
    <glyph glyph-name="E" unicode="E" horiz-adv-x="2076" 
d="M735 557q-23 0 -39 -16t-16 -39v-88q0 -23 16 -39.5t39 -16.5h1307q23 0 39 -16t16 -39v-246q0 -23 -16 -39t-39 -16l-1745 -2q-23 0 -39 16t-16 39v1323q0 23 16 39.5t39 16.5h1745q23 0 39 -16.5t16 -39.5v-248q0 -23 -16 -39t-41 -16h-1305q-23 0 -39 -17t-16 -40v-86
q0 -23 16 -39t39 -16h1268q23 0 40 -16.5t17 -39.5v-209q0 -23 -17 -39t-40 -16h-1268z" />
    <glyph glyph-name="F" unicode="F" horiz-adv-x="2013" 
d="M2077 1130q0 -23 -16.5 -39t-39.5 -16h-1282q-23 0 -39 -17t-16 -40v-86q0 -23 16 -39t39 -16h1246q23 0 39 -16.5t16 -39.5v-207q0 -23 -16 -39t-39 -16h-1246q-23 0 -39 -16t-16 -39v-449q0 -23 -16 -39t-39 -16h-328q-23 0 -39 16t-16 39v1323q0 23 16 39.5t39 16.5
h1720q23 0 39.5 -16.5t16.5 -39.5v-248z" />
    <glyph glyph-name="G" unicode="G" horiz-adv-x="2183" 
d="M2132 821q23 0 39 -17t16 -40v-47q0 -123 -1 -196t-11.5 -157t-20.5 -127.5t-42 -94.5t-62 -72.5t-94.5 -48t-124.5 -34t-167.5 -16t-208 -9.5t-261.5 -1t-261.5 1t-209 9.5t-168.5 16.5t-125 33.5t-95 47.5t-62 73t-42.5 94.5t-21 127t-11.5 157t-1 196.5q0 122 1 196
t11.5 157t21 127t43 95t62.5 73t95 47.5t125 33.5t168 16.5t208.5 9.5t261.5 1q158 0 258.5 -1.5t206.5 -8t167.5 -17.5t124.5 -31.5t95.5 -48t62.5 -69.5t44 -93.5t22 -122.5q3 -25 -13.5 -44t-41.5 -19h-326q-20 0 -34.5 14.5t-14.5 34.5t-13.5 33.5t-33.5 13.5h-1008
q-23 0 -39 -16t-16 -39v-684q0 -23 16 -39.5t39 -16.5h1000q23 0 39 16.5t16 39.5v74q0 23 -16 39t-39 16h-684q-23 0 -39.5 16t-16.5 39v205q0 23 16.5 40t39.5 17h1126z" />
    <glyph glyph-name="H" unicode="H" horiz-adv-x="2150" 
d="M1712 1378q0 23 16 39.5t39 16.5h326q23 0 39 -16.5t16 -39.5v-1323q0 -23 -16 -39t-39 -16h-326q-23 0 -39 16t-16 39v447q0 23 -17 39t-40 16h-916q-23 0 -39 -16t-16 -39v-447q0 -23 -16 -39t-39 -16h-328q-23 0 -39 16t-16 39v1323q0 23 16 39.5t39 16.5h328
q23 0 39 -16.5t16 -39.5v-446q0 -23 16 -39t39 -16h916q23 0 40 16t17 39v446z" />
    <glyph glyph-name="I" unicode="I" horiz-adv-x="684" 
d="M629 1434q23 0 39 -16.5t16 -39.5v-1323q0 -23 -16 -39t-39 -16h-328q-23 0 -39 16t-16 39v1323q0 23 16 39.5t39 16.5h328z" />
    <glyph glyph-name="J" unicode="J" horiz-adv-x="1961" 
d="M1446 1378q0 23 16 39.5t39 16.5h328q23 0 39 -16.5t16 -39.5v-821q0 -115 -3 -186.5t-21.5 -140.5t-39.5 -106t-75.5 -72t-109.5 -48.5t-161.5 -25t-212.5 -13.5t-280 -2q-169 0 -272.5 2t-209 12t-162 23.5t-112 43.5t-79 65.5t-44 96t-26 128t-6.5 168.5q0 23 16 39
t39 16h328q23 0 39 -16t16 -39v-131q0 -23 16 -39.5t39 -16.5h828q23 0 39 16.5t16 39.5v1007z" />
    <glyph glyph-name="K" unicode="K" horiz-adv-x="1951" 
d="M1595 0q-20 0 -34 14l-592 504q-15 12 -37 12h-193q-23 0 -39 -16t-16 -39v-420q0 -23 -16 -39t-39 -16h-328q-23 0 -39 16t-16 39v1323q0 23 16 39.5t39 16.5h328q23 0 39 -16.5t16 -39.5v-420q0 -23 16 -39t39 -16h191q22 0 37 12l589 504q15 15 37 15h400
q38 0 52 -36.5t-15 -62.5l-674 -575q-20 -17 -20 -42t20 -42l676 -578q29 -26 16 -62t-53 -36h-400z" />
    <glyph glyph-name="L" unicode="L" horiz-adv-x="1798" 
d="M684 375q0 -23 16 -39.5t39 -16.5h1108q23 0 39.5 -17t16.5 -40v-207q0 -23 -16.5 -39t-39.5 -16h-1546q-23 0 -39 16t-16 39v1323q0 23 16 39.5t39 16.5h328q23 0 39 -16.5t16 -39.5v-1003z" />
    <glyph glyph-name="M" unicode="M" horiz-adv-x="2566" 
d="M2464 1434h47q23 0 39 -16.5t16 -39.5v-1323q0 -23 -16 -39t-39 -16h-328q-23 0 -39 16t-16 39v629q0 27 -19.5 43.5t-44.5 13.5t-39 -26l-419 -688q-17 -27 -50 -27h-301q-32 0 -49 27l-420 688q-14 23 -38.5 26t-44 -13.5t-19.5 -43.5v-629q0 -23 -16 -39t-39 -16h-328
q-23 0 -39 16t-16 39v1323q0 23 16 39.5t39 16.5h477q30 0 47 -27l533 -872q17 -26 48 -26t48 26l533 872q17 27 47 27h430z" />
    <glyph glyph-name="N" unicode="N" horiz-adv-x="2183" 
d="M1747 1378q0 23 16 39.5t39 16.5h326q23 0 39 -16.5t16 -39.5v-1323q0 -23 -16 -39t-39 -16h-539q-25 0 -43 18l-766 856q-25 29 -60.5 15.5t-35.5 -51.5v-783q0 -23 -16 -39t-39 -16h-328q-23 0 -39 16t-16 39v1323q0 23 16 39.5t39 16.5h496q25 0 41 -19l811 -907
q26 -29 62 -15t36 52v833z" />
    <glyph glyph-name="O" unicode="O" 
d="M1194 1473q160 0 260.5 -1t208 -9.5t167.5 -16.5t124.5 -33.5t94.5 -47.5t62.5 -73t42.5 -95t20.5 -127t11.5 -156.5t1 -196.5t-1 -196t-11.5 -157t-20.5 -127.5t-42 -94.5t-62 -72.5t-94.5 -48t-124.5 -34t-167.5 -16t-208 -9.5t-261.5 -1t-261.5 1t-209 9.5
t-168.5 16.5t-125 33.5t-95 47.5t-62 73t-42.5 94.5t-21 127t-11.5 157t-1 196.5q0 122 1 196t11.5 157t21 127t43 95t62.5 73t95 47.5t125 33.5t168 16.5t208.5 9.5t261.5 1zM1694 319q23 0 39 16.5t16 39.5v684q0 23 -16 39t-39 16h-1004q-23 0 -39 -16t-16 -39v-684
q0 -23 16 -39.5t39 -16.5h1004z" />
    <glyph glyph-name="P" unicode="P" horiz-adv-x="2076" 
d="M1497 1434q110 0 186.5 -3.5t145 -15t111 -27.5t78.5 -47.5t54.5 -68t31.5 -96.5t16.5 -125.5t3.5 -161.5q0 -98 -3 -162t-15 -125.5t-29.5 -97.5t-52.5 -68.5t-77 -48t-111.5 -27.5t-147 -15t-191.5 -3h-762q-23 0 -39 -16t-16 -39v-232q0 -23 -16 -39t-39 -16h-328
q-23 0 -39 16t-16 39v1323q0 23 16 39.5t39 16.5h305h895zM1688 756v264q0 23 -16.5 39t-39.5 16h-897q-23 0 -39 -16t-16 -39v-264q0 -23 16 -39.5t39 -16.5h897q23 0 39.5 16.5t16.5 39.5z" />
    <glyph glyph-name="Q" unicode="Q" horiz-adv-x="2193" 
d="M2140 166l31 -31q17 -17 17 -40t-17 -40l-158 -157q-17 -17 -40 -17t-40 17l-84 84q-23 20 -51 14q-163 -35 -604 -35q-161 0 -261.5 1t-209 9.5t-168.5 16.5t-125 33.5t-95 47.5t-62 73t-42.5 94.5t-21 127t-11.5 157t-1 196.5q0 122 1 196t11.5 157t21 127t43 95
t62.5 73t95 47.5t125 33.5t168 16.5t208.5 9.5t261.5 1q160 0 260.5 -1t208 -9.5t167.5 -16.5t124.5 -33.5t94.5 -47.5t62.5 -73t42.5 -95t20.5 -127t11.5 -156.5t1 -196.5q0 -190 -12 -303t-47 -187q-16 -33 12 -61zM1655 645q28 -25 61 -10.5t33 51.5v373q0 23 -16 39
t-39 16h-1004q-23 0 -39 -16t-16 -39v-684q0 -24 16 -41t39 -17h684q38 0 52.5 35.5t-13.5 61.5q-17 17 -17 40t15 40l160 157q15 17 38 17t40 -15z" />
    <glyph glyph-name="R" unicode="R" horiz-adv-x="2160" 
d="M2083 502q53 -37 74.5 -116.5t21.5 -266.5v-64q0 -23 -16 -39t-39 -16h-324q-23 0 -39 16t-16 39v232q0 23 -17 39t-40 16h-953q-23 0 -39 -16t-16 -39v-232q0 -23 -16 -39t-39 -16h-328q-23 0 -39 16t-16 39v1323q0 23 16 39.5t39 16.5h1255q114 0 188.5 -2.5
t145.5 -13.5t111.5 -25.5t77.5 -45.5t54 -67t30 -97t16.5 -127.5t3.5 -166.5q0 -121 -23 -189t-75 -110q-22 -17 -21 -44t23 -44zM1688 700q23 0 39 16.5t16 39.5v264q0 23 -16 39t-39 16h-953q-23 0 -39 -16t-16 -39v-264q0 -23 16 -39.5t39 -16.5h953z" />
    <glyph glyph-name="S" unicode="S" horiz-adv-x="2150" 
d="M1153 877q447 0 592 -13q211 -20 296 -90q81 -68 96 -224q5 -49 5 -112q0 -68 -5 -120t-20.5 -97.5t-34.5 -78.5t-55.5 -61t-74.5 -46t-101.5 -32t-126.5 -22t-158.5 -12.5t-188.5 -6t-226 -1.5q-160 0 -265 2t-212.5 9.5t-172 19.5t-127.5 34.5t-96 52.5t-61 75
t-39 100.5t-14 130.5q-1 24 15 41.5t40 17.5h328q23 0 39 -16t16 -39v-14q0 -23 16 -39.5t39 -16.5h990q23 0 39 16.5t16 39.5v127q0 23 -16 39t-39 16h-494q-442 0 -583 13q-208 19 -290 88q-79 67 -95 221q-5 50 -5 116q0 85 8 146.5t33 112.5t56 85t92 59.5t125.5 39
t172 22t215.5 11t271 2.5q136 0 233.5 -2t193 -7.5t159.5 -16t125 -26t98.5 -39t69.5 -54t49.5 -72.5t27.5 -92t13 -115q2 -25 -14.5 -42.5t-41.5 -17.5h-327q-23 0 -39.5 16t-16.5 39v15q0 23 -16 39t-39 16h-952q-23 0 -39 -16t-16 -39v-127q0 -23 16 -39t39 -16h389h88z
" />
    <glyph glyph-name="T" unicode="T" horiz-adv-x="2050" 
d="M1993 1434q23 0 39 -16.5t16 -39.5v-209q0 -23 -16 -39t-39 -16h-676q-23 0 -39 -16t-16 -39v-1004q0 -23 -16.5 -39t-39.5 -16h-327q-23 0 -39.5 16t-16.5 39v1004q0 23 -16 39t-39 16h-676q-23 0 -39 16t-16 39v209q0 23 16 39.5t39 16.5h1901z" />
    <glyph glyph-name="U" unicode="U" horiz-adv-x="2138" 
d="M2103 717q0 -306 -10 -398q-17 -163 -87 -234q-76 -78 -266 -103q-160 -21 -591 -21q-445 0 -606 23q-185 27 -258 106q-67 73 -83 240q-9 91 -9 387v661q0 23 16 39.5t39 16.5h325q23 0 40.5 -16.5t17.5 -39.5v-1005q0 -23 16 -39.5t39 -16.5h924q23 0 39 16.5t16 39.5
v1005q0 23 17 39.5t40 16.5h326q23 0 39 -16.5t16 -39.5v-661z" />
    <glyph glyph-name="V" unicode="V" horiz-adv-x="1939" 
d="M1444 1403q17 31 49 31h365q32 0 48.5 -26.5t2.5 -55.5l-672 -1321q-14 -31 -49 -31h-471q-32 0 -49 31l-670 1321q-13 29 2.5 55.5t46.5 26.5h365q34 0 51 -31l440 -871q15 -31 49.5 -31t51.5 31z" />
    <glyph glyph-name="W" unicode="W" horiz-adv-x="2609" 
d="M2161 1397q13 37 53 37h319q28 0 45 -24t7 -50l-469 -1323q-13 -37 -54 -37h-430q-38 0 -51 37l-227 641q-6 18 -21.5 27.5t-32 9.5t-32 -9.5t-21.5 -27.5l-227 -641q-13 -37 -51 -37h-430q-41 0 -54 37l-469 1323q-11 26 6 50t46 24h319q40 0 53 -37l273 -787
q12 -37 52 -37t52 37l273 787q13 37 53 37h315q40 0 53 -37l273 -787q12 -37 52 -37t52 37z" />
    <glyph glyph-name="X" unicode="X" horiz-adv-x="2015" 
d="M1921 1434q38 0 52.5 -35.5t-13.5 -61.5l-629 -579q-17 -17 -17 -41t17 -41l629 -580q28 -26 13.5 -61t-52.5 -35h-424q-21 0 -39 14l-428 396q-15 15 -37 15t-39 -15l-428 -396q-18 -14 -37 -14h-426q-38 0 -51 35t15 61l626 580q19 17 19 41t-19 41l-626 579
q-28 26 -15 61.5t51 35.5h426q18 0 37 -15l428 -395q17 -15 39 -15t37 15l428 395q19 15 39 15h424z" />
    <glyph glyph-name="Y" unicode="Y" horiz-adv-x="1951" 
d="M1858 1434q37 0 51 -34.5t-11 -60.5l-724 -766q-15 -15 -15 -38v-480q0 -23 -17 -39t-40 -16h-326q-23 0 -39 16t-16 39v477q0 23 -16 39l-728 768q-25 26 -10.5 60.5t51.5 34.5h361q25 0 41 -19l477 -504q17 -17 41 -17t41 17l477 506q20 17 41 17h361z" />
    <glyph glyph-name="Z" unicode="Z" horiz-adv-x="2103" 
d="M2048 319q23 0 39 -17t16 -40v-207q0 -23 -16 -39t-39 -16h-1862q-23 0 -39 16t-16 39v232q0 32 27 49l1099 676q23 14 26 38.5t-13 44t-43 19.5h-1041q-23 0 -39 17t-16 40v207q0 23 16 39.5t39 16.5h1862q23 0 39 -16.5t16 -39.5v-231q0 -33 -26 -49l-1088 -676
q-23 -15 -26.5 -40t12.5 -44t43 -19h1030z" />
    <glyph glyph-name="bracketleft" unicode="[" horiz-adv-x="620" 
d="M659 1473q-15 0 -26.5 -11t-11.5 -28v-1434q0 -17 11.5 -28t26.5 -11h68q15 0 27 -12t12 -27v-268q0 -15 -12 -27t-27 -12h-442q-17 0 -28 11.5t-11 27.5v2126q0 16 11 27.5t28 11.5h442q15 0 27 -12t12 -27v-269q0 -15 -12 -26.5t-27 -11.5h-68z" />
    <glyph glyph-name="backslash" unicode="\" horiz-adv-x="1296" 
d="M29 1350q-17 28 -1 56t48 28h327q31 0 48 -27l809 -1323q17 -28 0.5 -56t-48.5 -28h-327q-33 0 -47 27z" />
    <glyph glyph-name="bracketright" unicode="]" horiz-adv-x="620" 
d="M436 1819q15 0 27 -12t12 -27v-2126q0 -15 -12 -27t-27 -12h-442q-17 0 -28 11.5t-11 27.5v268q0 16 11 27.5t28 11.5h67q16 0 27.5 11t11.5 28v1434q0 17 -11.5 28t-27.5 11h-67q-17 0 -28 11.5t-11 26.5v269q0 16 11 27.5t28 11.5h442z" />
    <glyph glyph-name="asciicircum" unicode="^" horiz-adv-x="1292" 
d="M1247 952q20 -28 4.5 -58t-49.5 -30h-246q-29 0 -45 23l-206 287q-17 23 -45.5 23t-45.5 -23l-204 -287q-20 -23 -45 -23h-248q-34 0 -49.5 30t4.5 58l329 459q16 23 45 23h426q30 0 46 -23z" />
    <glyph glyph-name="underscore" unicode="_" horiz-adv-x="2101" 
d="M2046 -43q23 0 39 -16t16 -39v-209q0 -23 -16 -39t-39 -16h-1745q-23 0 -39 16t-16 39v209q0 23 16 39t39 16h1745z" />
    <glyph glyph-name="grave" unicode="`" horiz-adv-x="630" 
d="M592 1634q15 -29 -1.5 -55.5t-47.5 -26.5h-119q-29 0 -45 23l-156 207q-20 28 -4.5 58t49.5 30h172q32 0 49 -31z" />
    <glyph glyph-name="a" unicode="a" horiz-adv-x="2131" 
d="M1688 0q-34 0 -50 29l-96 178q-13 29 -49 29h-889q-34 0 -47 -29l-98 -178q-13 -29 -47 -29h-365q-31 0 -47 27t-2 55l719 1323q13 29 47 29h569q36 0 49 -29l719 -1323q14 -28 -2 -55t-47 -27h-364zM788 637q-14 -28 2.5 -55t47.5 -27h424q31 0 47 27t2 55l-213 389
q-15 29 -48.5 29t-48.5 -29z" />
    <glyph glyph-name="b" unicode="b" horiz-adv-x="2158" 
d="M2091 723q109 -95 109 -289q0 -66 -3.5 -117.5t-18 -94t-25 -73.5t-43 -55t-52.5 -39.5t-73.5 -26.5t-85.5 -16.5t-109.5 -8t-124.5 -3t-149 -0.5h-1219q-23 0 -39 16t-16 39v1323q0 23 16 39.5t39 16.5h1264q77 0 114.5 -0.5t98.5 -3t89.5 -7.5t73 -15t64.5 -24.5
t48.5 -36t40.5 -51t25.5 -68t18 -86.5t4.5 -108q0 -160 -55 -235q-14 -17 -11.5 -40t19.5 -36zM1610 1114h-875q-23 0 -39 -17t-16 -40v-125q0 -23 16 -39t39 -16h875q41 0 65.5 29t24.5 89q0 59 -25 89t-65 30zM1673 319q42 0 65 25.5t23 93.5q0 119 -88 119h-938
q-23 0 -39 -16t-16 -39v-127q0 -23 16 -39.5t39 -16.5h938z" />
    <glyph glyph-name="c" unicode="c" horiz-adv-x="2156" 
d="M1784 477h342q25 0 41 -17t14 -42q-6 -84 -17 -143.5t-39 -109t-57.5 -81t-92.5 -56t-123.5 -36.5t-171 -19.5t-214 -9.5t-272.5 -2q-161 0 -261.5 1t-209 9.5t-168.5 16.5t-125 33.5t-95 47.5t-62 73t-42.5 94.5t-21 127t-11.5 157t-1 196.5q0 122 1 196t11.5 157
t21 127t43 95t62.5 73t95 47.5t125 33.5t168 16.5t208.5 9.5t261.5 1q168 0 272 -2t214 -9.5t170.5 -19.5t123.5 -36.5t93 -56t58 -81t39 -109t17 -143.5q2 -25 -14.5 -43.5t-40.5 -18.5h-342q-19 0 -34 11t-19 28q-29 85 -128 103t-411 18q-292 0 -374 -12
q-109 -16 -145 -70q-33 -50 -37 -187q-1 -37 -1 -128q0 -192 12 -250q18 -80 79 -110q65 -33 259 -37l209 -1q310 0 409 18t128 101q12 39 53 39z" />
    <glyph glyph-name="d" unicode="d" horiz-adv-x="2207" 
d="M297 0q-23 0 -39 16t-16 39v1323q0 23 16 39.5t39 16.5h942q160 0 260.5 -1t208 -9.5t167.5 -15.5t124.5 -32t94.5 -45.5t62 -69t42.5 -90t21 -120.5t11.5 -148.5t1 -185.5q0 -117 -1 -186t-11.5 -148t-20.5 -120t-42 -89.5t-62 -69t-94.5 -45t-124.5 -32t-167.5 -15.5
t-208 -9t-261.5 -1zM735 358h504q298 0 381 12q106 15 140 68q30 46 33 175l1 102q0 174 -12 227q-18 72 -79 100q-67 29 -269 32q-57 1 -197 1h-502q-23 0 -39 -17t-16 -40v-604q0 -23 16 -39.5t39 -16.5z" />
    <glyph glyph-name="e" unicode="e" horiz-adv-x="2076" 
d="M735 557q-23 0 -39 -16t-16 -39v-88q0 -23 16 -39.5t39 -16.5h1307q23 0 39 -16t16 -39v-246q0 -23 -16 -39t-39 -16l-1745 -2q-23 0 -39 16t-16 39v1323q0 23 16 39.5t39 16.5h1745q23 0 39 -16.5t16 -39.5v-248q0 -23 -16 -39t-39 -16h-1307q-23 0 -39 -17t-16 -40v-86
q0 -23 16 -39t39 -16h1268q23 0 40 -16.5t17 -39.5v-209q0 -23 -17 -39t-40 -16h-1268z" />
    <glyph glyph-name="f" unicode="f" horiz-adv-x="2013" 
d="M2077 1130q0 -23 -16.5 -39t-39.5 -16h-1282q-23 0 -39 -17t-16 -40v-86q0 -23 16 -39t39 -16h1246q23 0 39 -16.5t16 -39.5v-207q0 -23 -16 -39t-39 -16h-1246q-23 0 -39 -16t-16 -39v-449q0 -23 -16 -39t-39 -16h-328q-23 0 -39 16t-16 39v1323q0 23 16 39.5t39 16.5
h1720q23 0 39.5 -16.5t16.5 -39.5v-248z" />
    <glyph glyph-name="g" unicode="g" horiz-adv-x="2183" 
d="M2132 821q23 0 39 -16.5t16 -38.5v-49q0 -123 -1 -196t-11.5 -157t-20.5 -127.5t-42 -94.5t-62 -72.5t-94.5 -48t-124.5 -34t-167.5 -16t-208 -9.5t-261.5 -1t-261.5 1t-209 9.5t-168.5 16.5t-125 33.5t-95 47.5t-62 73t-42.5 94.5t-21 127t-11.5 157t-1 196.5
q0 122 1 196t11.5 157t21 127t43 95t62.5 73t95 47.5t125 33.5t168 16.5t208.5 9.5t261.5 1q158 0 258.5 -1.5t206.5 -8t167.5 -17.5t124.5 -31.5t95.5 -48t62.5 -69.5t44 -93.5t22 -122.5q3 -26 -13.5 -44.5t-41.5 -18.5h-371q-27 0 -43 22q-39 51 -139.5 62.5t-374.5 11.5
q-292 0 -374 -12q-109 -16 -145 -70q-33 -50 -37 -187q-1 -37 -1 -128q0 -192 12 -250q18 -80 79 -110q65 -33 259 -37l209 -1q302 0 401.5 16.5t130.5 92.5q11 26 -5.5 51t-45.5 25h-669q-23 0 -39.5 16t-16.5 39v205q0 23 16.5 40t39.5 17h1126z" />
    <glyph glyph-name="h" unicode="h" horiz-adv-x="2146" 
d="M1708 1378q0 23 16 39.5t39 16.5h326q23 0 39 -16.5t16 -39.5v-1323q0 -23 -16 -39t-39 -16h-326q-23 0 -39 16t-16 39v447q0 23 -17 39t-40 16h-916q-23 0 -39 -16t-16 -39v-447q0 -23 -16 -39t-39 -16h-328q-23 0 -39 16t-16 39v1323q0 23 16 39.5t39 16.5h328
q23 0 39 -16.5t16 -39.5v-446q0 -23 16 -39t39 -16h916q23 0 40 16t17 39v446z" />
    <glyph glyph-name="i" unicode="i" horiz-adv-x="684" 
d="M629 1434q23 0 39 -16.5t16 -39.5v-1323q0 -23 -16 -39t-39 -16h-328q-23 0 -39 16t-16 39v1323q0 23 16 39.5t39 16.5h328z" />
    <glyph glyph-name="j" unicode="j" horiz-adv-x="1961" 
d="M1501 1434h328q23 0 39 -16.5t16 -39.5v-821q0 -115 -3 -186.5t-21.5 -140.5t-39.5 -106t-75.5 -72t-109.5 -48.5t-161.5 -25t-212.5 -13.5t-280 -2q-169 0 -272.5 2t-209 12t-162 23.5t-112 43.5t-79 65.5t-44 96t-26 128t-6.5 168.5q0 23 16 39t39 16h328q23 0 39 -15
t16 -38q6 -134 83 -161.5t390 -27.5q97 0 145 0.5t108.5 4.5t84.5 8.5t55.5 18t39.5 28.5t19 43.5t12 58t1 78.5v823q0 23 16 39.5t39 16.5z" />
    <glyph glyph-name="k" unicode="k" horiz-adv-x="1951" 
d="M1595 0q-20 0 -34 14l-592 504q-15 12 -37 12h-193q-23 0 -39 -16t-16 -39v-420q0 -23 -16 -39t-39 -16h-328q-23 0 -39 16t-16 39v1323q0 23 16 39.5t39 16.5h328q23 0 39 -16.5t16 -39.5v-420q0 -23 16 -39t39 -16h191q22 0 37 12l589 504q15 15 37 15h400
q40 0 53 -36.5t-16 -62.5l-674 -575q-20 -17 -20 -42t20 -42l676 -578q29 -26 16 -62t-53 -36h-400z" />
    <glyph glyph-name="l" unicode="l" horiz-adv-x="1796" 
d="M680 375q0 -23 16 -39.5t39 -16.5h1108q23 0 39 -17t16 -40v-207q0 -23 -16 -39t-39 -16h-1546q-23 0 -39 16t-16 39v1323q0 23 16 39.5t39 16.5h328q23 0 39 -16.5t16 -39.5v-1003z" />
    <glyph glyph-name="m" unicode="m" horiz-adv-x="2566" 
d="M2464 1434h47q23 0 39 -16.5t16 -39.5v-1323q0 -23 -16 -39t-39 -16h-328q-23 0 -39 16t-16 39v631q0 41 -40.5 52.5t-62.5 -23.5l-419 -688q-17 -27 -50 -27h-301q-32 0 -49 27l-420 688q-22 35 -62 23.5t-40 -52.5v-631q0 -23 -16 -39t-39 -16h-328q-23 0 -39 16
t-16 39v1323q0 23 16 39.5t39 16.5h477q30 0 47 -27l533 -872q17 -26 48 -26t48 26l533 872q17 27 47 27h430z" />
    <glyph glyph-name="n" unicode="n" horiz-adv-x="2185" 
d="M1747 1378q0 23 16 39.5t39 16.5h326q23 0 39 -16.5t16 -39.5v-1323q0 -23 -16 -39t-39 -16h-539q-26 0 -41 18l-768 859q-25 28 -60.5 13.5t-35.5 -52.5v-783q0 -23 -16 -39t-39 -16h-328q-23 0 -39 16t-16 39v1323q0 23 16 39.5t39 16.5h496q25 0 41 -19l811 -907
q26 -29 62 -15t36 52v833z" />
    <glyph glyph-name="o" unicode="o" 
d="M2187 717q0 -123 -1 -196t-11.5 -157t-20.5 -127.5t-42 -94.5t-62 -72.5t-94.5 -48t-124.5 -34t-167.5 -16t-208 -9.5t-261.5 -1t-261.5 1t-209 9.5t-168.5 16.5t-125 33.5t-95 47.5t-62 73t-42.5 94.5t-21 127t-11.5 157t-1 196.5q0 122 1 196t11.5 157t21 127t43 95
t62.5 73t95 47.5t125 33.5t168 16.5t208.5 9.5t261.5 1q160 0 260.5 -1t208 -9.5t167.5 -16.5t124.5 -33.5t94.5 -47.5t62.5 -73t42.5 -95t20.5 -127t11.5 -156.5t1 -196.5zM1192 1114q-292 0 -374 -12q-109 -16 -145 -70q-33 -50 -37 -187q-1 -37 -1 -128q0 -192 12 -250
q18 -80 79 -110q65 -33 259 -37l209 -1q292 0 375 12q107 16 143 70q32 49 36 185q1 36 1 129q0 193 -12 250q-17 81 -78 112q-64 32 -256 36q-60 1 -211 1z" />
    <glyph glyph-name="p" unicode="p" horiz-adv-x="2076" 
d="M1497 1434q110 0 186.5 -3.5t145 -15t111 -27.5t78.5 -47.5t54.5 -68t31.5 -96.5t16.5 -125.5t3.5 -161.5q0 -98 -3 -162t-15 -125.5t-29.5 -97.5t-52.5 -68.5t-77 -48t-111.5 -27.5t-147 -15t-191.5 -3h-762q-23 0 -39 -16t-16 -39v-232q0 -23 -16 -39t-39 -16h-328
q-23 0 -39 16t-16 39v1323q0 23 16 39.5t39 16.5h305h895zM1495 700q47 0 79.5 4t54 15.5t33.5 23.5t18 37.5t7 47t1 61.5q0 30 -0.5 46.5t-3 38t-8 33t-14.5 25t-23 20t-34.5 13t-47.5 8.5t-62 2h-760q-23 0 -39 -16t-16 -39v-264q0 -23 16 -39.5t39 -16.5h760z" />
    <glyph glyph-name="q" unicode="q" horiz-adv-x="2193" 
d="M2171 135q17 -17 17 -40t-17 -40l-158 -157q-17 -17 -40 -17t-40 17l-84 84q-23 20 -51 14q-163 -35 -604 -35q-161 0 -261.5 1t-209 9.5t-168.5 16.5t-125 33.5t-95 47.5t-62 73t-42.5 94.5t-21 127t-11.5 157t-1 196.5q0 122 1 196t11.5 157t21 127t43 95t62.5 73
t95 47.5t125 33.5t168 16.5t208.5 9.5t261.5 1q160 0 260.5 -1t208 -9.5t167.5 -16.5t124.5 -33.5t94.5 -47.5t62.5 -73t42.5 -95t20.5 -127t11.5 -156.5t1 -196.5q0 -190 -12 -303t-47 -187q-16 -33 12 -61zM1194 317h180q38 0 52.5 35.5t-13.5 61.5q-17 17 -17 40t15 40
l160 157q15 17 38 17t40 -15l6 -8q28 -25 61 -10.5t33 51.5v29q0 193 -12 251q-18 81 -79 111q-66 32 -259 36l-207 1q-292 0 -374 -12q-109 -16 -145 -70q-33 -50 -37 -187q-1 -37 -1 -128q0 -192 12 -250q18 -81 80 -112q66 -33 261 -37q61 -1 206 -1z" />
    <glyph glyph-name="r" unicode="r" horiz-adv-x="2164" 
d="M2183 889q0 -121 -23 -189t-75 -110q-22 -17 -21 -44t23 -44q53 -37 74.5 -116.5t21.5 -266.5v-64q0 -23 -16 -39t-39 -16h-324q-23 0 -39 16t-16 39v64q0 38 -0.5 58t-3 47t-7.5 40t-14.5 29t-23 23t-34 14.5t-47.5 9.5t-63 2h-817q-23 0 -39 -16t-16 -39v-232
q0 -23 -16 -39t-39 -16h-328q-23 0 -39 16t-16 39v1323q0 23 16 39.5t39 16.5h1255q114 0 188.5 -2.5t145.5 -13.5t111.5 -25.5t77.5 -45.5t54 -67t30 -97t16.5 -127.5t3.5 -166.5zM1556 700q36 0 63.5 2.5t47 9.5t33.5 13.5t23 21.5t14 25t7 32t2.5 35.5t0.5 42.5v7v35
t-1.5 30.5t-4 28t-7 24t-11.5 21.5t-17.5 16.5t-24.5 13.5t-32 9t-41.5 6.5t-51.5 1.5h-817q-23 0 -39 -16t-16 -39v-264q0 -23 16 -39.5t39 -16.5h817z" />
    <glyph glyph-name="s" unicode="s" horiz-adv-x="2150" 
d="M1153 877q447 0 592 -13q211 -20 296 -90q81 -68 96 -224q5 -49 5 -112q0 -68 -5 -120t-20.5 -97.5t-34.5 -78.5t-55.5 -61t-74.5 -46t-101.5 -32t-126.5 -22t-158.5 -12.5t-188.5 -6t-226 -1.5q-160 0 -265 2t-212.5 9.5t-172 19.5t-127.5 34.5t-96 52.5t-61 75
t-39 100.5t-14 130.5q-1 24 15 41.5t40 17.5h338q19 0 34 -10.5t19 -27.5q19 -62 104.5 -74.5t398.5 -12.5h40q375 0 462 16.5t87 102.5t-86 102.5t-463 16.5q-442 0 -583 13q-208 19 -290 88q-79 67 -95 221q-5 50 -5 116q0 85 8 146.5t33 112.5t56 85t92 59.5t125.5 39
t172 22t215.5 11t271 2.5q136 0 233.5 -2t193 -7.5t159.5 -16t125 -26t98.5 -39t69.5 -54t49.5 -72.5t27.5 -92t13 -115q2 -25 -14.5 -42.5t-41.5 -17.5h-335q-19 0 -34.5 11.5t-19.5 29.5q-14 60 -101.5 72t-422.5 12q-373 0 -452.5 -16t-79.5 -103q0 -86 78.5 -102
t441.5 -16h12z" />
    <glyph glyph-name="t" unicode="t" horiz-adv-x="2050" 
d="M1993 1434q23 0 39 -16.5t16 -39.5v-209q0 -23 -16 -39t-39 -16h-676q-23 0 -39 -16t-16 -39v-1004q0 -23 -16.5 -39t-39.5 -16h-327q-23 0 -39.5 16t-16.5 39v1004q0 23 -16 39t-39 16h-676q-23 0 -39 16t-16 39v209q0 23 16 39.5t39 16.5h1901z" />
    <glyph glyph-name="u" unicode="u" horiz-adv-x="2138" 
d="M2103 717q0 -306 -10 -398q-17 -163 -87 -234q-76 -78 -266 -103q-160 -21 -591 -21q-445 0 -606 23q-185 27 -258 106q-67 73 -83 240q-9 91 -9 387v661q0 23 16 39.5t39 16.5h327q23 0 39.5 -16.5t16.5 -39.5v-661q0 -197 12 -255q17 -80 77 -110q63 -31 248 -34
q53 -1 181 -1q270 0 347 12q100 16 134 72q31 51 34 193l1 121v663q0 23 17 39.5t40 16.5h326q23 0 39 -16.5t16 -39.5v-661z" />
    <glyph glyph-name="v" unicode="v" horiz-adv-x="1939" 
d="M1444 1403q17 31 49 31h365q32 0 48.5 -26t2.5 -54l-672 -1323q-14 -31 -49 -31h-471q-32 0 -49 31l-670 1323q-14 28 2 54t47 26h365q34 0 51 -31l440 -871q15 -31 49.5 -31t51.5 31z" />
    <glyph glyph-name="w" unicode="w" horiz-adv-x="2609" 
d="M2161 1397q13 37 53 37h319q29 0 46 -24t6 -50l-469 -1323q-13 -37 -54 -37h-430q-38 0 -51 37l-227 641q-6 18 -21.5 27.5t-32 9.5t-32 -9.5t-21.5 -27.5l-227 -641q-13 -37 -51 -37h-430q-41 0 -54 37l-469 1323q-11 26 6 50t46 24h319q40 0 53 -37l273 -787
q12 -37 52 -37t52 37l273 787q13 37 53 37h315q40 0 53 -37l273 -787q12 -37 52 -37t52 37z" />
    <glyph glyph-name="x" unicode="x" horiz-adv-x="2015" 
d="M1921 1434q38 0 52.5 -35.5t-13.5 -61.5l-629 -579q-17 -17 -17 -41t17 -41l629 -580q28 -26 13.5 -61t-52.5 -35h-424q-21 0 -39 14l-428 396q-15 15 -37 15t-39 -15l-428 -396q-18 -14 -37 -14h-426q-38 0 -51 35t15 61l626 580q19 17 19 41t-19 41l-626 579
q-28 26 -15 61.5t51 35.5h426q18 0 37 -15l428 -395q17 -15 39 -15t37 15l428 395q19 15 39 15h424z" />
    <glyph glyph-name="y" unicode="y" horiz-adv-x="1951" 
d="M1858 1434q37 0 51 -33.5t-11 -61.5l-724 -766q-15 -15 -15 -38v-480q0 -23 -16 -39t-39 -16h-328q-23 0 -39 16t-16 39v477q0 23 -16 39l-728 768q-25 28 -10.5 61.5t51.5 33.5h361q24 0 41 -17l477 -506q17 -17 41 -17t41 17l477 506q20 17 41 17h361z" />
    <glyph glyph-name="z" unicode="z" horiz-adv-x="2099" 
d="M2044 319q23 0 39 -17t16 -40v-207q0 -23 -16 -39t-39 -16h-1862q-23 0 -39 16t-16 39v232q0 32 27 49l1099 676q35 23 24 62.5t-52 39.5h-1043q-23 0 -39 17t-16 40v207q0 23 16 39.5t39 16.5h1862q23 0 39 -16.5t16 -39.5v-231q0 -33 -26 -49l-1090 -676
q-23 -15 -26 -40t13.5 -44t43.5 -19h1030z" />
    <glyph glyph-name="braceleft" unicode="{" horiz-adv-x="759" 
d="M623 991q0 -151 -70 -252q-13 -22 0 -45q70 -101 70 -252v-92q0 -175 57 -254q22 -31 59 -41q12 -3 20.5 -14t8.5 -23v-241q0 -17 -12 -28.5t-29 -10.5q-184 18 -299 170q-121 165 -121 442v92q0 59 -20 82q-24 35 -127 35v315q103 0 127 35q20 23 20 82v92
q0 278 121 443q115 152 299 170q17 1 29 -10.5t12 -28.5v-242q0 -12 -8.5 -23t-20.5 -14q-37 -10 -59 -41q-57 -79 -57 -254v-92z" />
    <glyph glyph-name="bar" unicode="|" horiz-adv-x="591" 
d="M535 1434q23 0 39 -16.5t16 -39.5v-1640q0 -23 -16 -39t-39 -16h-234q-23 0 -39 16t-16 39v1640q0 23 16 39.5t39 16.5h234z" />
    <glyph glyph-name="braceright" unicode="}" horiz-adv-x="759" 
d="M287 1083q0 176 -60 254q-22 32 -57 41q-13 3 -22 14t-9 23v242q0 17 13 29t30 10q185 -19 299 -170q121 -165 121 -443v-92q0 -60 19 -82q27 -35 127 -35v-315q-100 0 -127 -35q-19 -22 -19 -82v-92q0 -277 -121 -442q-114 -151 -299 -170q-17 -2 -30 10t-13 29v241
q0 12 9 23t22 14q35 9 57 41q60 78 60 254v92q0 151 67 252q13 23 0 45q-67 101 -67 252v92z" />
    <glyph glyph-name="asciitilde" unicode="~" horiz-adv-x="1435" 
d="M1407 723q17 -17 16 -42t-20 -40q-65 -56 -148 -94q-96 -41 -202 -47h-33q-119 0 -307 51q-104 26 -155.5 34.5t-108 0.5t-101.5 -43q-15 -12 -37 -10.5t-35 16.5l-165 166q-18 17 -17 42t21 40q70 61 145 90q85 41 201 47q123 4 336 -49q78 -20 120.5 -28.5t92.5 -11.5
t86.5 9t72.5 39q15 12 36.5 11t35.5 -15z" />
    <glyph glyph-name="nbspace" unicode="&#xa0;" horiz-adv-x="1079" 
 />
    <glyph glyph-name="exclamdown" unicode="&#xa1;" horiz-adv-x="622" 
d="M623 283v-4v-498q0 -23 -16.5 -40t-39.5 -17h-327q-23 0 -39.5 17t-16.5 40v498v4l27 266q1 21 17 35t38 14h275q22 0 37 -13.5t18 -35.5zM272 838q-23 0 -40 17t-17 40v207q0 23 17 39t40 16h263q23 0 39 -16t16 -39v-207q0 -23 -16 -40t-39 -17h-263z" />
    <glyph glyph-name="cent" unicode="&#xa2;" horiz-adv-x="1603" 
d="M1571 547q17 0 28.5 -12t10.5 -29q-5 -71 -16 -119t-37 -86t-61 -59t-97.5 -36t-136.5 -20.5t-187 -7.5q-15 0 -26 -11t-11 -28v-100q0 -17 -11.5 -28t-27.5 -11h-186q-17 0 -28 11t-11 28v100q0 17 -11.5 28t-27.5 11q-102 2 -171.5 6t-130 17.5t-96 27.5t-64.5 49
t-42 66.5t-22 95t-10.5 120.5t-1.5 157q0 79 1 128t6 104.5t12 87t22.5 67t34.5 53.5t51 38t68 28.5t90 16.5t113 11t140 4q16 0 27.5 11t11.5 28v101q0 17 11 28t28 11h186q16 0 27.5 -11t11.5 -28v-101q0 -17 11 -28t26 -11q112 -2 186 -7.5t136.5 -20t98 -36t61.5 -59
t37 -85.5t16 -119q1 -17 -10.5 -29t-28.5 -12h-236q-13 0 -24.5 9.5t-14.5 21.5q-11 60 -63.5 72t-233.5 11h-94h-94q-229 2 -266.5 -26.5t-36.5 -201.5v-56v-52q-1 -130 10 -165q14 -45 67 -58q45 -11 224 -10h1h1h1h1h1h1h1h91h99q176 -2 227.5 10.5t62.5 71.5
q3 14 14.5 23.5t24.5 9.5h236z" />
    <glyph glyph-name="sterling" unicode="&#xa3;" horiz-adv-x="2064" 
d="M2077 41q8 -17 1 -33t-24 -22q-131 -39 -262.5 -49.5t-237 0.5t-211.5 28.5t-201.5 28.5t-189 5.5t-191.5 -46t-194 -119.5q-11 -9 -25.5 -8t-25.5 10l-291 262q-10 9 -12 24.5t6 27.5q79 113 97 201t6 210q-2 14 -13 24.5t-26 10.5h-80q-17 0 -28 11t-11 28v166
q0 16 11 27.5t28 11.5h55q16 0 27.5 11t11.5 28q0 124 14 209.5t51 155t95.5 111t155 69.5t221 38.5t301.5 10.5q170 0 290.5 -9.5t217.5 -35t157.5 -64.5t101.5 -103t58 -146t20 -197q0 -18 -10.5 -29.5t-27.5 -11.5h-359q-15 0 -26 10.5t-13 25.5q-5 86 -42.5 129.5
t-120.5 60.5t-246 17q-173 0 -256 -20t-114.5 -68.5t-31.5 -150.5v-2q0 -17 11.5 -28t27.5 -11h436q15 0 27 -12t12 -27v-166q0 -17 -11.5 -28t-27.5 -11h-405q-17 0 -29 -13t-10 -30q8 -113 -19 -188q-8 -23 8.5 -40t39.5 -10q89 27 201.5 27.5t222.5 -14.5t222.5 -28.5
t235.5 -9t228 37.5q14 5 27.5 -1.5t19.5 -19.5z" />
    <glyph glyph-name="currency" unicode="&#xa4;" horiz-adv-x="1093" 
d="M983 537l98 -99q7 -8 7 -19t-7 -18l-147 -147q-8 -6 -18.5 -6t-16.5 6l-100 100q-11 11 -27 4q-73 -30 -151 -30q-79 0 -152 30q-15 6 -29 -4l-98 -100q-8 -6 -18.5 -6t-16.5 6l-147 147q-8 7 -8 18t8 19l98 99q12 12 6 28q-31 73 -31 150q0 78 31 151q7 16 -6 29
l-98 100q-8 6 -8 16.5t8 18.5l147 148q6 6 16.5 6t18.5 -6l98 -101q14 -10 29 -4q76 31 152 31q75 0 151 -31q15 -8 27 4l100 101q6 6 16.5 6t18.5 -6l147 -148q7 -8 7 -18.5t-7 -16.5l-98 -100q-14 -11 -6 -27v-2q31 -73 31 -151q0 -77 -31 -150v-2q-8 -16 6 -26zM717 625
q24 32 30 67.5t-4 64t-32 50.5t-50.5 32t-64 4t-68.5 -30q-1 -1 -2 -3t-2 -3q-24 -32 -30 -67.5t4 -64t32 -51t50.5 -32.5t64 -4t68.5 30q4 4 4 7z" />
    <glyph glyph-name="yen" unicode="&#xa5;" horiz-adv-x="1832" 
d="M1800 1370l-493 -590q-17 -19 -7 -41t35 -22h174q16 0 27.5 -11t11.5 -28v-109q0 -15 -12 -27t-27 -12h-344q-17 0 -28 -10.5t-11 -27.5v-3q0 -15 11 -26.5t28 -11.5h344q16 0 27.5 -11t11.5 -28v-107q0 -17 -11.5 -28t-27.5 -11h-344q-17 0 -28 -11.5t-11 -27.5v-188
q0 -17 -11.5 -28t-27.5 -11h-360q-17 0 -28 11t-11 28v188q0 15 -12 27t-27 12h-348q-16 0 -27.5 11t-11.5 28v107q0 17 11.5 28t27.5 11h348q15 0 27 11.5t12 26.5v3q0 17 -11.5 27.5t-27.5 10.5h-348q-15 0 -27 12t-12 27v109q0 17 11.5 28t27.5 11h174q25 0 35.5 22
t-4.5 41l-494 590q-15 19 -4.5 41.5t35.5 22.5h393q18 0 29 -15l412 -493q11 -15 29 -15t30 15l412 493q11 15 28 15h393q25 0 35.5 -22.5t-4.5 -41.5z" />
    <glyph glyph-name="section" unicode="&#xa7;" horiz-adv-x="1755" 
d="M1733 514q-3 -14 0 -27q16 -57 16 -155q0 -52 -4 -93t-16 -76.5t-27 -61t-43 -47.5t-58 -36t-79 -25.5t-98 -17.5t-123 -10t-147 -5t-175 -1q-122 0 -203 1.5t-163.5 7t-132.5 15t-99 26t-75.5 39t-48.5 56t-31.5 75t-12.5 97.5q-1 25 15.5 42.5t39.5 17.5h242
q39 0 53 -35q16 -45 73 -54t264 -9h81q291 0 358.5 13t67.5 81q0 66 -66.5 79t-359.5 13q-367 0 -479 13q-158 18 -216 81q-57 62 -61 214v32q0 95 17 156q3 13 0 26q-17 61 -17 158q0 66 6.5 114t25.5 87.5t43.5 65.5t71.5 46t97 30.5t133.5 17t167.5 8.5t211 2
q117 0 198.5 -2t160.5 -8t130 -15.5t98 -26.5t73.5 -40t48 -56t31 -74t12.5 -96q2 -23 -14.5 -40t-41.5 -17h-241q-41 0 -54 37q-15 43 -67 51t-251 8h-83q-290 0 -352 -12.5t-62 -79.5t62.5 -79.5t351.5 -12.5q370 0 484 -13q162 -18 222 -82q58 -63 62 -216v-29
q0 -101 -16 -158zM1341 668q26 -2 38 22.5t-5 44.5q-8 8 -12 8q-35 14 -114.5 17.5t-266.5 3.5q-258 0 -354 4q-28 1 -40 -24.5t7 -45.5q4 -4 8 -6q31 -14 106 -17t273 -3q262 0 360 -4z" />
    <glyph glyph-name="dieresis" unicode="&#xa8;" horiz-adv-x="1030" 
d="M508 1653q-25 -60 -85.5 -85.5t-121.5 -0.5q-60 26 -84.5 86.5t0.5 120.5t85 85t120 -1q60 -25 85.5 -85t0.5 -120zM856 1559q-63 -11 -116.5 27t-63.5 102q-9 65 29 117.5t102 62.5q65 11 117.5 -27t62.5 -102q11 -65 -28 -118t-103 -62z" />
    <glyph glyph-name="copyright" unicode="&#xa9;" horiz-adv-x="499" 
d="M305 1475q79 0 136 -57.5t57 -137.5t-57 -137.5t-136 -57.5q-81 0 -137.5 57.5t-56.5 137.5t56.5 137.5t137.5 57.5zM305 1118q66 0 114 47.5t48 114.5t-48 114.5t-114 47.5q-67 0 -114.5 -47t-47.5 -115t47.5 -115t114.5 -47zM371 1251h51q-1 -42 -21 -51.5t-96 -9.5
q-38 0 -56.5 1.5t-33.5 5.5t-20 15.5t-7 25.5t-2 42t2 42t7 25.5t20 15.5t33.5 5.5t56.5 1.5q76 0 96 -9.5t21 -51.5h-51q-1 13 -10 15.5t-43 2.5h-3h-3h-3.5h-3.5q-54 0 -59.5 -4t-5.5 -43q0 -38 6 -42.5t59 -4.5h13q24 0 33 0.5t14 4.5t6 13z" />
    <glyph glyph-name="guillemotleft" unicode="&#xab;" horiz-adv-x="1366" 
d="M649 1305q28 20 58 4.5t30 -49.5v-246q0 -28 -22 -47l-287 -205q-23 -17 -23 -45t23 -45l287 -207q22 -16 22 -45v-246q0 -34 -30 -49.5t-58 4.5l-459 330q-22 16 -22 45v426q0 29 22 45zM1044 762q-23 -17 -23 -45t23 -45l285 -207q25 -18 25 -45v-246q0 -34 -30 -49.5
t-58 4.5l-459 330q-23 16 -23 45v426q0 29 23 45l459 330q28 20 58 4.5t30 -49.5v-246q0 -26 -25 -47z" />
    <glyph glyph-name="softhyphen" unicode="&#xad;" horiz-adv-x="0" 
 />
    <glyph glyph-name="registered" unicode="&#xae;" horiz-adv-x="499" 
d="M305 1475q80 0 136.5 -57t56.5 -138q0 -80 -57 -136.5t-136 -56.5q-81 0 -137.5 56.5t-56.5 136.5q0 82 56 138.5t138 56.5zM305 1118q66 0 114 48t48 114q0 67 -48 114.5t-114 47.5q-67 0 -114.5 -47t-47.5 -115q0 -66 47.5 -114t114.5 -48zM420 1300q0 -28 -21 -40
q12 -5 16.5 -14t4.5 -36v-14h-53v14q0 12 -1 16.5t-6 7.5t-16 3h-102v-41h-52v170h154q51 0 63.5 -11t12.5 -55zM344 1278q9 0 14 1t7 5.5t2 6v9.5q0 9 -1 12.5t-6 7t-16 3.5h-102v-45h102z" />
    <glyph glyph-name="degree" unicode="&#xb0;" horiz-adv-x="600" 
d="M360 1473q100 0 170 -70t70 -168t-70 -168t-170 -70q-98 0 -167.5 70t-69.5 168t69.5 168t167.5 70zM360 1155q33 0 56.5 23.5t23.5 56.5t-23.5 56.5t-56.5 23.5q-32 0 -54.5 -23.5t-22.5 -56.5t22.5 -56.5t54.5 -23.5z" />
    <glyph glyph-name="plusminus" unicode="&#xb1;" horiz-adv-x="1191" 
d="M1122 299q24 0 41 -16t17 -39v-191q0 -23 -17 -39t-41 -16h-895q-23 0 -39 16t-16 39v191q0 23 16 39t39 16h895zM1137 1083q23 0 39 -16t16 -41v-190q0 -23 -16 -39.5t-39 -16.5h-242q-23 0 -39 -16t-16 -39v-242q0 -23 -17 -39t-41 -16h-190q-23 0 -39 16t-16 39v242
q0 23 -16.5 39t-39.5 16h-241q-23 0 -39.5 16.5t-16.5 39.5v190q0 24 16 40.5t40 16.5h241q23 0 39.5 16.5t16.5 39.5v241q0 23 16 39.5t39 16.5h190q23 0 40.5 -16.5t17.5 -39.5v-241q0 -23 16 -39.5t39 -16.5h242z" />
    <glyph glyph-name="acute" unicode="&#xb4;" horiz-adv-x="630" 
d="M551 1870q35 0 50 -30t-5 -58l-154 -207q-16 -23 -45 -23h-121q-31 0 -46.5 26.5t-2.5 55.5l103 205q17 31 51 31h170z" />
    <glyph glyph-name="paragraph" unicode="&#xb6;" horiz-adv-x="1554" 
d="M1464 1434q23 0 40.5 -16.5t17.5 -39.5v-233q0 -23 -17 -39t-41 -16h-30q-23 0 -40.5 -16.5t-17.5 -39.5v-1296q0 -23 -16 -40t-39 -17h-231q-23 0 -40.5 17t-17.5 40v1296q0 23 -16 39.5t-39 16.5h-31q-24 0 -40.5 -16t-16.5 -40v-1296q0 -23 -16 -40t-39 -17h-234
q-23 0 -39 17t-16 40v782q0 22 -14 38t-35 17q-157 19 -265.5 135t-115.5 275q-7 184 122 316.5t314 132.5h913z" />
    <glyph glyph-name="cedilla" unicode="&#xb8;" horiz-adv-x="657" 
d="M602 -39q23 0 39 -17t16 -40v-72q0 -114 -87 -199t-218 -102q-23 -3 -40.5 10t-22.5 35l-8 47q-3 21 9 39.5t32 22.5q61 15 96 59q23 26 8.5 57t-49.5 31h-76q-23 0 -39 16t-16 39v17q0 23 16 40t39 17h301z" />
    <glyph glyph-name="guillemotright" unicode="&#xbb;" horiz-adv-x="1366" 
d="M1354 975q24 -17 24 -45v-426q0 -28 -24 -45l-457 -330q-28 -20 -58 -4.5t-30 49.5v246q0 29 22 45l287 207q23 17 23 45t-23 45l-287 205q-22 19 -22 47v246q0 34 30 49.5t58 -4.5zM739 975q23 -16 23 -45v-426q0 -29 -23 -45l-458 -330q-28 -20 -58 -4.5t-30 49.5v246
q0 29 22 45l287 207q23 17 23 45t-23 45l-287 205q-22 19 -22 47v246q0 34 30 49.5t58 -4.5z" />
    <glyph glyph-name="questiondown" unicode="&#xbf;" horiz-adv-x="2043" 
d="M948 840q-23 0 -39 16t-16 39v207q0 23 16 39t39 16h328q23 0 39 -16t16 -39v-207q0 -23 -16 -39t-39 -16h-328zM2017 168q25 0 41 -17t15 -42q-3 -65 -13 -115t-27.5 -92t-49.5 -72.5t-69.5 -54t-98.5 -39t-125 -26t-159.5 -16t-193 -7.5t-233.5 -2q-157 0 -271 3
t-216 11.5t-170.5 22t-126.5 36.5t-91.5 52t-57 71.5t-32 93t-8.5 117.5q0 77 1.5 119t10 94t23 77.5t44.5 58t70.5 48.5t104.5 35t142.5 31t189.5 25q86 10 121 29.5t43 52.5q13 40 55 40h340q23 0 39 -17t16 -40q-2 -74 -9 -121.5t-30.5 -84.5t-47 -56.5t-83 -35.5
t-111.5 -23t-157 -19q-95 -10 -155.5 -20.5t-95 -20t-50 -26.5t-18.5 -30t-3 -40q0 -60 18 -80q29 -32 156 -40q89 -5 359 -5q350 0 428.5 11t93.5 71q5 19 19.5 31t33.5 12h338z" />
    <glyph glyph-name="Agrave" unicode="&#xc0;" horiz-adv-x="2127" 
d="M944 1573l-156 207q-20 28 -4 58t50 30h172q32 0 49 -31l102 -205q15 -29 -1.5 -55.5t-47.5 -26.5h-121q-27 0 -43 23zM2091 84q15 -29 -1 -56.5t-48 -27.5h-363q-32 0 -49 31l-96 176q-14 31 -49 31h-889q-32 0 -49 -31l-96 -176q-6 -13 -20.5 -22t-29.5 -9h-362
q-31 0 -47.5 27.5t-1.5 56.5l717 1321q16 29 49 29h569q36 0 49 -29zM1251 555q32 0 48 27t1 55l-210 389q-15 29 -48.5 29t-50.5 -29l-211 -389q-14 -28 2 -55t47 -27h422z" />
    <glyph glyph-name="Aacute" unicode="&#xc1;" horiz-adv-x="2127" 
d="M975 1550q-31 0 -46.5 26.5t-2.5 55.5l102 205q17 31 51 31h170q34 0 49.5 -30t-4.5 -58l-155 -207q-16 -23 -43 -23h-121zM2091 84q15 -29 -1 -56.5t-48 -27.5h-363q-32 0 -49 31l-96 176q-14 31 -49 31h-889q-32 0 -49 -31l-96 -176q-6 -13 -20.5 -22t-29.5 -9h-362
q-31 0 -47.5 27.5t-1.5 56.5l717 1321q16 29 49 29h569q36 0 49 -29zM1251 555q32 0 48 27t1 55l-210 389q-15 29 -48.5 29t-50.5 -29l-211 -389q-14 -28 2 -55t47 -27h422z" />
    <glyph glyph-name="Acircumflex" unicode="&#xc2;" horiz-adv-x="2127" 
d="M723 1550q-35 0 -50.5 33t9.5 59l178 207q19 19 43 19h277q25 0 41 -19l180 -207q25 -26 9.5 -59t-50.5 -33h-113q-22 0 -41 19l-123 141q-17 19 -42 19t-42 -19l-122 -141q-19 -19 -41 -19h-113zM2091 84q15 -29 -1 -56.5t-48 -27.5h-363q-32 0 -49 31l-96 176
q-14 31 -49 31h-889q-32 0 -49 -31l-96 -176q-6 -13 -20.5 -22t-29.5 -9h-362q-31 0 -47.5 27.5t-1.5 56.5l717 1321q16 29 49 29h569q36 0 49 -29zM1251 555q32 0 48 27t1 55l-210 389q-15 29 -48.5 29t-50.5 -29l-211 -389q-14 -28 2 -55t47 -27h422z" />
    <glyph glyph-name="Atilde" unicode="&#xc3;" horiz-adv-x="2127" 
d="M637 1669q-22 15 -23.5 42t17.5 44q81 75 200 84q104 9 240 -31q156 -48 225 -4q30 20 64 0l86 -61q22 -15 23 -42t-19 -44q-77 -74 -199 -86h-39q-93 0 -202 33q-156 48 -224 4q-14 -9 -32 -9t-31 9zM2091 84q15 -29 -1 -56.5t-48 -27.5h-363q-32 0 -49 31l-96 176
q-14 31 -49 31h-889q-32 0 -49 -31l-96 -176q-6 -13 -20.5 -22t-29.5 -9h-362q-31 0 -47.5 27.5t-1.5 56.5l717 1321q16 29 49 29h569q36 0 49 -29zM1251 555q32 0 48 27t1 55l-210 389q-15 29 -48.5 29t-50.5 -29l-211 -389q-14 -28 2 -55t47 -27h422z" />
    <glyph glyph-name="Adieresis" unicode="&#xc4;" horiz-adv-x="2127" 
d="M807 1552q-65 0 -111.5 47t-46.5 111q0 66 46.5 112t111.5 46q66 0 112 -46t46 -112q0 -65 -46 -111.5t-112 -46.5zM1407 1620q-38 -53 -101.5 -64.5t-117.5 25.5t-66 101t25 118q38 54 101.5 65t117.5 -26t66 -101t-25 -118zM2091 84q15 -29 -1 -56.5t-48 -27.5h-363
q-32 0 -49 31l-96 176q-14 31 -49 31h-889q-32 0 -49 -31l-96 -176q-6 -13 -20.5 -22t-29.5 -9h-362q-31 0 -47.5 27.5t-1.5 56.5l717 1321q16 29 49 29h569q36 0 49 -29zM1251 555q32 0 48 27t1 55l-210 389q-15 29 -48.5 29t-50.5 -29l-211 -389q-14 -28 2 -55t47 -27h422
z" />
    <glyph glyph-name="Aring" unicode="&#xc5;" horiz-adv-x="2129" 
d="M2097 82q14 -28 -2 -55t-47 -27h-365q-33 0 -47 31l-98 176q-14 31 -47 31h-891q-33 0 -47 -31l-98 -176q-14 -31 -47 -31h-365q-31 0 -47 27t-2 55l719 1323q13 29 47 29h53q33 0 49 29t-2 57q-35 53 -35 120q0 96 71 161.5t167 58.5q75 -6 135 -64.5t68 -132.5
q9 -77 -35 -143q-18 -28 -2 -57t49 -29h53q34 0 47 -29zM952 1647q-3 -43 27.5 -73.5t73.5 -27.5q34 3 58.5 27.5t27.5 58.5q3 43 -27.5 73.5t-73.5 27.5q-34 -3 -58.5 -27.5t-27.5 -58.5zM1257 555q31 0 47.5 27t2.5 55l-213 391q-15 29 -48.5 29t-48.5 -29l-213 -391
q-14 -28 2.5 -55t47.5 -27h423z" />
    <glyph glyph-name="AE" unicode="&#xc6;" horiz-adv-x="2451" 
d="M2273 358q23 0 39.5 -16t16.5 -39v-246q0 -23 -16.5 -39t-39.5 -16h-1192q-23 0 -39 16t-16 39v123q0 24 -16 41t-39 17h-375q-32 0 -49 -31l-96 -176q-6 -13 -20.5 -22t-29.5 -9h-362q-31 0 -47.5 27.5t-1.5 56.5l717 1321q16 29 49 29h1517q23 0 39.5 -16.5t16.5 -39.5
v-248q0 -23 -16.5 -39t-39.5 -16h-753q-23 0 -39.5 -16t-16.5 -39v-88q0 -23 16.5 -39t39.5 -16h716q23 0 39.5 -16.5t16.5 -39.5v-207q0 -23 -16.5 -39t-39.5 -16h-716q-23 0 -39.5 -17t-16.5 -40v-86q0 -23 16.5 -40.5t39.5 -17.5h753zM1026 610v258q0 44 -42 54.5
t-62 -27.5l-142 -258q-14 -28 2 -55t47 -27h142q23 0 39 16t16 39z" />
    <glyph glyph-name="Ccedilla" unicode="&#xc7;" horiz-adv-x="2156" 
d="M2126 477q25 0 41 -17t14 -42q-5 -74 -15 -128.5t-29.5 -101t-45 -78.5t-68.5 -57.5t-93 -41t-124.5 -26.5t-157 -15.5t-196.5 -6.5q-23 0 -39 -16.5t-16 -38.5v-80q0 -114 -87.5 -199t-219.5 -102q-22 -3 -40.5 10t-21.5 35l-8 47q-3 21 8.5 39.5t32.5 22.5
q57 14 93 54.5t36 92.5h-150q-23 0 -39 16t-16 39v25q0 22 -16 38.5t-39 16.5q-138 2 -233 8t-176.5 25.5t-130.5 39.5t-88.5 68.5t-57.5 93t-30 133t-14.5 168.5t-2.5 218q0 122 1 196t11.5 157.5t21 127.5t43 94.5t62.5 73t95 48.5t125.5 33.5t168 16.5t208.5 10t261 1
q167 0 271.5 -2t214 -9.5t171 -20t124 -37t92.5 -56t57.5 -81.5t39 -109.5t17.5 -143.5q2 -25 -14 -42.5t-41 -17.5h-330q-23 0 -39 16.5t-16 39.5v49q0 23 -16 39t-39 16h-996q-23 0 -39 -16t-16 -39v-686q0 -23 16 -39.5t39 -16.5h996q23 0 39 16.5t16 39.5v47q0 23 16 39
t39 16h330z" />
    <glyph glyph-name="Egrave" unicode="&#xc8;" horiz-adv-x="2076" 
d="M1071 1573l-153 207q-20 28 -4.5 58t49.5 30h170q34 0 51 -31l102 -205q13 -29 -2.5 -55.5t-46.5 -26.5h-121q-25 0 -45 23zM2042 358q23 0 39 -16t16 -39v-246q0 -23 -16 -39t-39 -16h-1745q-23 0 -39 16t-16 39v1321q0 23 16 39.5t39 16.5h1745q23 0 39 -16.5t16 -39.5
v-248q0 -23 -16 -39t-41 -16h-1305q-23 0 -39 -16t-16 -39v-88q0 -23 16 -39t39 -16h1268q23 0 40 -16.5t17 -39.5v-207q0 -23 -17 -39t-40 -16h-1268q-23 0 -39 -17t-16 -40v-86q0 -24 16 -41t39 -17h1307z" />
    <glyph glyph-name="Eacute" unicode="&#xc9;" horiz-adv-x="2076" 
d="M1102 1550q-31 0 -46.5 26.5t-2.5 55.5l102 205q17 31 51 31h170q35 0 50 -30t-5 -58l-153 -207q-16 -23 -45 -23h-121zM2042 358q23 0 39 -16t16 -39v-246q0 -23 -16 -39t-39 -16h-1745q-23 0 -39 16t-16 39v1321q0 23 16 39.5t39 16.5h1745q23 0 39 -16.5t16 -39.5
v-248q0 -23 -16 -39t-41 -16h-1305q-23 0 -39 -16t-16 -39v-88q0 -23 16 -39t39 -16h1268q23 0 40 -16.5t17 -39.5v-207q0 -23 -17 -39t-40 -16h-1268q-23 0 -39 -17t-16 -40v-86q0 -24 16 -41t39 -17h1307z" />
    <glyph glyph-name="Ecircumflex" unicode="&#xca;" horiz-adv-x="2076" 
d="M848 1550q-35 0 -49.5 33t8.5 59l180 207q16 19 41 19h277q27 0 43 -19l180 -207q24 -26 8.5 -59t-51.5 -33h-111q-24 0 -43 19l-123 141q-17 19 -42 19t-42 -19l-123 -141q-19 -19 -40 -19h-113zM2042 358q23 0 39 -16t16 -39v-246q0 -23 -16 -39t-39 -16h-1745
q-23 0 -39 16t-16 39v1321q0 23 16 39.5t39 16.5h1745q23 0 39 -16.5t16 -39.5v-248q0 -23 -16 -39t-41 -16h-1305q-23 0 -39 -16t-16 -39v-88q0 -23 16 -39t39 -16h1268q23 0 40 -16.5t17 -39.5v-207q0 -23 -17 -39t-40 -16h-1268q-23 0 -39 -17t-16 -40v-86q0 -24 16 -41
t39 -17h1307z" />
    <glyph glyph-name="Edieresis" unicode="&#xcb;" horiz-adv-x="2076" 
d="M1044 1599q-46 -46 -110.5 -46t-110.5 46t-46 112t46 112t110.5 46t110.5 -46t46 -112t-46 -112zM1516 1599q-46 -46 -112 -46t-112 46t-46 112t46 112t112 46t112 -46t46 -112t-46 -112zM2042 358q23 0 39 -16t16 -39v-246q0 -23 -16 -39t-39 -16h-1745q-23 0 -39 16
t-16 39v1321q0 23 16 39.5t39 16.5h1745q23 0 39 -16.5t16 -39.5v-248q0 -23 -16 -39t-41 -16h-1305q-23 0 -39 -16t-16 -39v-88q0 -23 16 -39t39 -16h1268q23 0 40 -16.5t17 -39.5v-207q0 -23 -17 -39t-40 -16h-1268q-23 0 -39 -17t-16 -40v-86q0 -24 16 -41t39 -17h1307z
" />
    <glyph glyph-name="Igrave" unicode="&#xcc;" horiz-adv-x="681" 
d="M549 1434q23 0 39 -16.5t16 -39.5v-1321q0 -23 -16 -40t-39 -17h-326q-23 0 -40 17t-17 40v1321q0 23 17 39.5t40 16.5h326zM334 1550q-29 0 -45 23l-156 207q-20 28 -4.5 58t49.5 30h172q32 0 49 -31l105 -205q13 -29 -3.5 -55.5t-47.5 -26.5h-119z" />
    <glyph glyph-name="Iacute" unicode="&#xcd;" horiz-adv-x="679" 
d="M625 1434q23 0 39 -16.5t16 -39.5v-1321q0 -23 -16 -40t-39 -17h-328q-23 0 -39 17t-16 40v1321q0 23 16 39.5t39 16.5h328zM670 1868q34 0 49 -30t-6 -58l-154 -207q-16 -23 -45 -23h-119q-32 0 -48.5 26.5t-2.5 55.5l105 205q17 31 49 31h172z" />
    <glyph glyph-name="Icircumflex" unicode="&#xce;" horiz-adv-x="684" 
d="M434 1434q23 0 39 -16.5t16 -39.5v-1321q0 -23 -16 -40t-39 -17h-325q-23 0 -39.5 17t-16.5 40v1321q0 23 16.5 39.5t39.5 16.5h325zM631 1642q25 -26 9.5 -59t-50.5 -33h-113q-22 0 -41 19l-123 141q-17 19 -42 19t-42 -19l-123 -141q-19 -19 -40 -19h-113
q-35 0 -50.5 33t9.5 59l180 207q16 19 41 19h277q25 0 41 -19z" />
    <glyph glyph-name="Idieresis" unicode="&#xcf;" horiz-adv-x="681" 
d="M434 1434q23 0 39 -16.5t16 -39.5v-1321q0 -23 -16 -40t-39 -17h-328q-23 0 -39 17t-16 40v1321q0 23 16 39.5t39 16.5h328zM190 1694q-6 -64 -56.5 -106t-115.5 -36q-64 6 -105.5 56.5t-35.5 115.5q8 65 58 106.5t114 35.5q65 -6 106 -56.5t35 -115.5zM506 1552
q-66 0 -112 46.5t-46 111.5q0 66 46 112t112 46q65 0 111.5 -46t46.5 -112q0 -64 -47 -111t-111 -47z" />
    <glyph glyph-name="Eth" unicode="&#xd0;" horiz-adv-x="2269" 
d="M1243 1430q160 0 260.5 -1t208 -9.5t167.5 -15.5t124.5 -32t94.5 -45.5t62 -69t42.5 -90t21 -120.5t11.5 -148.5t1 -185.5q0 -146 -2 -226.5t-20.5 -169.5t-38 -129t-79 -85t-118 -58.5t-179 -28.5t-238 -16.5t-318.5 -1.5l-944 -2q-23 0 -38 15.5t-15 37.5v443
q0 22 -14.5 37.5t-36.5 15.5h-15q-23 0 -38 14.5t-15 36.5v240q0 23 15 38t38 15h15q22 0 36.5 14.5t14.5 36.5v438q0 22 15 37t38 15h944zM1798 408v610q0 22 -14.5 37.5t-36.5 15.5h-1012q-22 0 -36.5 -15.5t-14.5 -37.5v-78q0 -22 14.5 -36.5t36.5 -14.5h316
q22 0 37.5 -15t15.5 -38v-240q0 -22 -15.5 -36.5t-37.5 -14.5h-316q-22 0 -36.5 -15.5t-14.5 -37.5v-84q0 -22 15 -38t36 -16h1012q21 0 36 16t15 38z" />
    <glyph glyph-name="Ntilde" unicode="&#xd1;" horiz-adv-x="2181" 
d="M807 1669q-22 15 -23.5 42t17.5 44q81 75 200 84q104 9 240 -31q156 -48 225 -4q30 20 64 0l86 -61q22 -15 23 -42t-19 -44q-77 -74 -199 -86h-39q-93 0 -202 33q-156 48 -224 4q-14 -9 -32 -9t-31 9zM2124 1434q23 0 39 -16.5t16 -39.5v-1321q0 -23 -16 -40t-39 -17
h-539q-21 0 -43 18l-766 859q-25 28 -60.5 14.5t-35.5 -51.5v-783q0 -23 -16 -40t-39 -17h-328q-23 0 -39 17t-16 40v1321q0 23 16 39.5t39 16.5h496q25 0 41 -19l811 -907q26 -28 62 -14.5t36 51.5v833q0 23 16 39.5t39 16.5h326z" />
    <glyph glyph-name="Ograve" unicode="&#xd2;" 
d="M1094 1573l-156 207q-20 28 -4.5 58t49.5 30h170q34 0 51 -31l103 -205q13 -29 -3 -55.5t-47 -26.5h-120q-27 0 -43 23zM1194 1475q160 0 260.5 -1t208 -10t167.5 -16.5t124.5 -33.5t94.5 -48t62 -73t42.5 -95t21 -127.5t11.5 -157t1 -196.5t-1 -196t-11.5 -157
t-20.5 -127.5t-42 -94.5t-62 -72.5t-94.5 -48t-124.5 -34t-167.5 -16t-208 -9.5t-261.5 -1t-261.5 1t-209 9.5t-168.5 16.5t-125 33.5t-95 47.5t-62 73t-42.5 94.5t-21 127t-11.5 157t-1 196.5q0 122 1 196t11.5 157.5t21 127.5t43 94.5t62.5 73t95 48.5t125.5 33.5
t168 16.5t208.5 10t261 1zM1749 375v686q0 23 -16 39t-39 16h-1004q-23 0 -39 -16t-16 -39v-686q0 -23 16 -39.5t39 -16.5h1004q23 0 39 16.5t16 39.5z" />
    <glyph glyph-name="Oacute" unicode="&#xd3;" 
d="M1122 1550q-31 0 -46.5 26.5t-2.5 55.5l105 205q14 31 49 31h170q35 0 51 -30t-6 -58l-154 -207q-16 -23 -45 -23h-121zM1194 1475q160 0 260.5 -1t208 -10t167.5 -16.5t124.5 -33.5t94.5 -48t62 -73t42.5 -95t21 -127.5t11.5 -157t1 -196.5t-1 -196t-11.5 -157
t-20.5 -127.5t-42 -94.5t-62 -72.5t-94.5 -48t-124.5 -34t-167.5 -16t-208 -9.5t-261.5 -1t-261.5 1t-209 9.5t-168.5 16.5t-125 33.5t-95 47.5t-62 73t-42.5 94.5t-21 127t-11.5 157t-1 196.5q0 122 1 196t11.5 157.5t21 127.5t43 94.5t62.5 73t95 48.5t125.5 33.5
t168 16.5t208.5 10t261 1zM1749 375v686q0 23 -16 39t-39 16h-1004q-23 0 -39 -16t-16 -39v-686q0 -23 16 -39.5t39 -16.5h1004q23 0 39 16.5t16 39.5z" />
    <glyph glyph-name="Ocircumflex" unicode="&#xd4;" 
d="M870 1550q-35 0 -50.5 33t7.5 59l181 207q19 19 43 19h276q25 0 41 -19l180 -207q23 -26 8.5 -59t-49.5 -33h-112q-22 0 -41 19l-123 141q-17 19 -42 19t-42 -19l-123 -141q-19 -19 -43 -19h-111zM1194 1475q160 0 260.5 -1t208 -10t167.5 -16.5t124.5 -33.5t94.5 -48
t62 -73t42.5 -95t21 -127.5t11.5 -157t1 -196.5t-1 -196t-11.5 -157t-20.5 -127.5t-42 -94.5t-62 -72.5t-94.5 -48t-124.5 -34t-167.5 -16t-208 -9.5t-261.5 -1t-261.5 1t-209 9.5t-168.5 16.5t-125 33.5t-95 47.5t-62 73t-42.5 94.5t-21 127t-11.5 157t-1 196.5
q0 122 1 196t11.5 157.5t21 127.5t43 94.5t62.5 73t95 48.5t125.5 33.5t168 16.5t208.5 10t261 1zM1749 375v686q0 23 -16 39t-39 16h-1004q-23 0 -39 -16t-16 -39v-686q0 -23 16 -39.5t39 -16.5h1004q23 0 39 16.5t16 39.5z" />
    <glyph glyph-name="Otilde" unicode="&#xd5;" 
d="M784 1669q-23 15 -24.5 42t18.5 44q81 75 199 84q106 9 242 -31q155 -48 223 -4q14 9 31.5 9t31.5 -9l86 -61q22 -15 23.5 -42t-17.5 -44q-80 -74 -200 -86h-39q-92 0 -201 33q-158 49 -223 4q-34 -20 -64 0zM1194 1475q160 0 260.5 -1t208 -10t167.5 -16.5t124.5 -33.5
t94.5 -48t62 -73t42.5 -95t21 -127.5t11.5 -157t1 -196.5t-1 -196t-11.5 -157t-20.5 -127.5t-42 -94.5t-62 -72.5t-94.5 -48t-124.5 -34t-167.5 -16t-208 -9.5t-261.5 -1t-261.5 1t-209 9.5t-168.5 16.5t-125 33.5t-95 47.5t-62 73t-42.5 94.5t-21 127t-11.5 157t-1 196.5
q0 122 1 196t11.5 157.5t21 127.5t43 94.5t62.5 73t95 48.5t125.5 33.5t168 16.5t208.5 10t261 1zM1749 375v686q0 23 -16 39t-39 16h-1004q-23 0 -39 -16t-16 -39v-686q0 -23 16 -39.5t39 -16.5h1004q23 0 39 16.5t16 39.5z" />
    <glyph glyph-name="Odieresis" unicode="&#xd6;" 
d="M956 1552q-64 0 -110.5 46.5t-46.5 111.5q0 66 46 112t111 46q66 0 112 -46t46 -112q0 -65 -46 -111.5t-112 -46.5zM1427 1552q-66 0 -111.5 46.5t-45.5 111.5q0 66 45.5 112t111.5 46q65 0 110.5 -46t45.5 -112q0 -65 -46 -111.5t-110 -46.5zM1194 1475q160 0 260.5 -1
t208 -10t167.5 -16.5t124.5 -33.5t94.5 -48t62 -73t42.5 -95t21 -127.5t11.5 -157t1 -196.5t-1 -196t-11.5 -157t-20.5 -127.5t-42 -94.5t-62 -72.5t-94.5 -48t-124.5 -34t-167.5 -16t-208 -9.5t-261.5 -1t-261.5 1t-209 9.5t-168.5 16.5t-125 33.5t-95 47.5t-62 73
t-42.5 94.5t-21 127t-11.5 157t-1 196.5q0 122 1 196t11.5 157.5t21 127.5t43 94.5t62.5 73t95 48.5t125.5 33.5t168 16.5t208.5 10t261 1zM1749 375v686q0 23 -16 39t-39 16h-1004q-23 0 -39 -16t-16 -39v-686q0 -23 16 -39.5t39 -16.5h1004q23 0 39 16.5t16 39.5z" />
    <glyph glyph-name="multiply" unicode="&#xd7;" horiz-adv-x="1165" 
d="M930 678l207 -205q15 -17 15 -40t-15 -40l-166 -164q-15 -17 -39 -17t-39 17l-205 205q-17 15 -40 15t-40 -15l-205 -205q-17 -17 -39.5 -17t-39.5 17l-164 164q-17 17 -17 40t17 40l205 205q17 15 17 39t-17 39l-205 205q-17 17 -17 39.5t17 39.5l164 164q17 17 39.5 17
t39.5 -17l205 -205q17 -15 40 -15t40 15l205 205q15 17 39 17t39 -17l166 -164q15 -17 15 -39.5t-15 -39.5l-207 -205q-15 -15 -15 -39t15 -39z" />
    <glyph glyph-name="Oslash" unicode="&#xd8;" horiz-adv-x="2236" 
d="M2210 1300q11 -20 5.5 -42.5t-24.5 -32.5l-18 -13q-31 -21 -25 -57q25 -133 25 -438q0 -123 -1 -196.5t-11.5 -157t-20.5 -127t-42.5 -94.5t-62.5 -73t-95 -47.5t-124.5 -33.5t-167.5 -16.5t-208.5 -9.5t-261.5 -1q-373 0 -552.5 16.5t-275.5 73.5q-29 16 -57 -2l-27 -14
q-19 -12 -41.5 -7.5t-34.5 23.5l-51 84q-12 19 -6.5 41.5t25.5 34.5l22 14q31 21 25 58q-23 122 -23 434q0 122 1 196t11.5 157t21 127.5t43 95t63 73t95 48.5t125 33.5t167.5 16.5t208 10t261 1q367 0 547 -16.5t276 -72.5q30 -17 57 0l23 15q20 12 43 6.5t35 -25.5z
M618 596q0 -32 29.5 -48t57.5 1l749 463q23 15 26 40t-13.5 44.5t-43.5 19.5h-747q-24 0 -41 -16t-17 -39v-465zM1735 375v467q0 32 -29 48t-57 -1l-754 -467q-35 -22 -23.5 -62.5t52.5 -40.5h755q23 0 39.5 16.5t16.5 39.5z" />
    <glyph glyph-name="Ugrave" unicode="&#xd9;" horiz-adv-x="2138" 
d="M1049 1573l-156 207q-20 28 -4.5 58t49.5 30h172q32 0 49 -31l103 -205q13 -29 -3 -55.5t-47 -26.5h-120q-27 0 -43 23zM2103 717q0 -306 -10 -398q-17 -163 -87 -234q-76 -78 -266 -103q-160 -21 -591 -21q-445 0 -606 23q-185 27 -258 106q-67 73 -83 240q-9 91 -9 387
v661q0 23 16 39.5t39 16.5h325q23 0 40.5 -16.5t17.5 -39.5v-1005q0 -23 16 -39.5t39 -16.5h924q23 0 39 16.5t16 39.5v1005q0 23 17 39.5t40 16.5h326q23 0 39 -16.5t16 -39.5v-661z" />
    <glyph glyph-name="Uacute" unicode="&#xda;" horiz-adv-x="2138" 
d="M1081 1550q-31 0 -46.5 26.5t-2.5 55.5l103 205q17 31 51 31h170q35 0 50 -30t-5 -58l-154 -207q-16 -23 -45 -23h-121zM2103 717q0 -306 -10 -398q-17 -163 -87 -234q-76 -78 -266 -103q-160 -21 -591 -21q-445 0 -606 23q-185 27 -258 106q-67 73 -83 240q-9 91 -9 387
v661q0 23 16 39.5t39 16.5h325q23 0 40.5 -16.5t17.5 -39.5v-1005q0 -23 16 -39.5t39 -16.5h924q23 0 39 16.5t16 39.5v1005q0 23 17 39.5t40 16.5h326q23 0 39 -16.5t16 -39.5v-661z" />
    <glyph glyph-name="Ucircumflex" unicode="&#xdb;" horiz-adv-x="2138" 
d="M823 1554q-34 0 -48.5 30.5t7.5 55.5l187 213q16 19 39 19h280q23 0 39 -19l186 -213q22 -25 9 -55.5t-47 -30.5h-121q-25 0 -39 17l-127 145q-15 19 -39 19t-41 -19l-125 -145q-17 -17 -39 -17h-121zM2103 717q0 -306 -10 -399q-17 -162 -87 -234q-76 -78 -267 -104
q-160 -21 -590 -21q-444 0 -606 23q-185 27 -258 107q-67 74 -83 241q-9 91 -9 387v663q0 22 15 38t38 16h332q22 0 37.5 -16t15.5 -38v-1011q0 -22 15 -38t36 -16h932q21 0 36 16t15 38v1011q0 22 15.5 38t37.5 16h334q21 0 36 -16t15 -38v-663z" />
    <glyph glyph-name="Udieresis" unicode="&#xdc;" horiz-adv-x="2138" 
d="M913 1556q-65 0 -111 46t-46 112q0 65 46.5 111.5t110.5 46.5q65 0 111.5 -47t46.5 -111q0 -66 -46.5 -112t-111.5 -46zM1382 1556q-65 0 -110 46t-45 112q0 65 45.5 111.5t109.5 46.5q66 0 112 -46.5t46 -111.5q0 -66 -46 -112t-112 -46zM2103 717q0 -306 -10 -399
q-17 -162 -87 -234q-76 -78 -267 -104q-160 -21 -590 -21q-444 0 -606 23q-185 27 -258 107q-67 74 -83 241q-9 91 -9 387v663q0 22 15 38t38 16h332q22 0 37.5 -16t15.5 -38v-1011q0 -22 15 -38t36 -16h932q21 0 36 16t15 38v1011q0 22 15.5 38t37.5 16h334q21 0 36 -16
t15 -38v-663z" />
    <glyph glyph-name="Yacute" unicode="&#xdd;" horiz-adv-x="1959" 
d="M870 1554q-29 0 -44 25t-3 51l107 213q18 29 47 29h180q32 0 46.5 -29t-5.5 -55l-158 -213q-18 -21 -43 -21h-127zM1874 1434q35 0 48.5 -31.5t-9.5 -56.5l-731 -775q-15 -12 -15 -34v-484q0 -23 -15.5 -38t-37.5 -15h-334q-22 0 -36.5 15t-14.5 38v482q0 17 -14 34
l-733 777q-24 25 -10.5 56.5t48.5 31.5h369q22 0 39 -17l481 -508q15 -17 38 -17t38 17l481 508q17 17 39 17h369z" />
    <glyph glyph-name="Thorn" unicode="&#xde;" horiz-adv-x="1351" 
d="M664 1243q118 0 192 -0.5t153 -7t123 -11.5t91.5 -23t69.5 -33.5t46 -51t31.5 -66t15 -88.5t8.5 -109t1 -136q0 -86 -1 -136.5t-8.5 -109t-14.5 -88.5t-30.5 -66t-45.5 -51t-69.5 -33.5t-92 -23.5t-123.5 -11.5t-153.5 -7t-192.5 -0.5h-25q-22 0 -37.5 -14.5t-15.5 -36.5
v-86q0 -23 -14.5 -38t-36.5 -15h-240q-23 0 -38 15t-15 38v1327q0 23 15 38.5t38 15.5h240q22 0 36.5 -15.5t14.5 -38.5v-84q0 -22 15.5 -37.5t37.5 -15.5h25zM1073 600v115v116v97q0 22 -15.5 36.5t-37.5 14.5h-381q-22 0 -37.5 -14.5t-15.5 -36.5v-475h434q22 0 37.5 15.5
t15.5 37.5v94z" />
    <glyph glyph-name="germandbls" unicode="&#xdf;" horiz-adv-x="2070" 
d="M1997 723q108 -94 108 -289q0 -66 -3.5 -117.5t-18 -94t-25 -73.5t-43 -55t-52.5 -39.5t-73.5 -26.5t-85.5 -16.5t-109.5 -8t-124.5 -3t-149 -0.5h-98q-74 0 -111 0.5t-95.5 2.5t-87.5 7t-72.5 13.5t-64 22t-49.5 33t-42 45.5t-27.5 60t-20.5 77.5t-8 96.5v13
q0 23 16.5 39t39.5 16h332q20 0 35.5 -11t19.5 -30q14 -68 84 -68h305q42 0 66 26.5t24 94.5q0 119 -90 119h-776q-23 0 -39.5 16t-16.5 39v215q0 23 16.5 40.5t39.5 17.5h715q90 0 90 110q0 58 -25 84.5t-65 26.5h-758q-40 0 -65 -26.5t-25 -84.5v-940q0 -23 -16.5 -39
t-39.5 -16h-327q-23 0 -39.5 16t-16.5 39v979q0 85 13 147.5t29.5 106t60.5 71.5t77 43.5t110 22t128 8t160 1.5h659q109 0 159.5 -1t127.5 -8t110 -22.5t77 -43.5t61 -71.5t30 -106t13 -147.5q0 -160 -55 -235q-14 -17 -11.5 -40t19.5 -36z" />
    <glyph glyph-name="agrave" unicode="&#xe0;" horiz-adv-x="2127" 
d="M944 1573l-156 205q-20 28 -4 59t50 31h172q32 0 49 -31l102 -207q15 -28 -1.5 -54t-47.5 -26h-121q-27 0 -43 23zM2091 82q15 -28 -1 -55t-48 -27h-363q-33 0 -49 29l-96 178q-13 29 -49 29h-889q-33 0 -49 -29l-96 -178q-13 -29 -50 -29h-362q-31 0 -47.5 27t-1.5 55
l717 1323q16 29 49 29h569q36 0 49 -29zM1251 555q32 0 48 27t1 55l-210 389q-15 29 -48.5 29t-50.5 -29l-211 -389q-14 -28 2 -55t47 -27h422z" />
    <glyph glyph-name="aacute" unicode="&#xe1;" horiz-adv-x="2127" 
d="M975 1550q-31 0 -47 26t-2 54l102 207q17 31 51 31h170q34 0 49.5 -31t-4.5 -59l-155 -205q-16 -23 -43 -23h-121zM2091 82q15 -28 -1 -55t-48 -27h-363q-33 0 -49 29l-96 178q-13 29 -49 29h-889q-33 0 -49 -29l-96 -178q-13 -29 -50 -29h-362q-31 0 -47.5 27t-1.5 55
l717 1323q16 29 49 29h569q36 0 49 -29zM1251 555q32 0 48 27t1 55l-210 389q-15 29 -48.5 29t-50.5 -29l-211 -389q-14 -28 2 -55t47 -27h422z" />
    <glyph glyph-name="acircumflex" unicode="&#xe2;" horiz-adv-x="2127" 
d="M723 1550q-36 0 -50.5 32t9.5 60l178 205q21 21 43 21h277q24 0 41 -21l180 -205q24 -28 9.5 -60t-50.5 -32h-113q-25 0 -41 19l-123 141q-17 19 -42 19t-42 -19l-122 -141q-16 -19 -41 -19h-113zM2091 82q15 -28 -1 -55t-48 -27h-363q-33 0 -49 29l-96 178
q-13 29 -49 29h-889q-33 0 -49 -29l-96 -178q-13 -29 -50 -29h-362q-31 0 -47.5 27t-1.5 55l717 1323q16 29 49 29h569q36 0 49 -29zM1251 555q32 0 48 27t1 55l-210 389q-15 29 -48.5 29t-50.5 -29l-211 -389q-14 -28 2 -55t47 -27h422z" />
    <glyph glyph-name="atilde" unicode="&#xe3;" horiz-adv-x="2127" 
d="M637 1669q-22 15 -23.5 41t17.5 45q81 75 200 84q106 9 240 -33q159 -47 225 -4q14 10 31.5 10t32.5 -10l86 -61q22 -15 23 -41t-19 -45q-82 -75 -199 -84q-12 -2 -39 -2q-86 0 -202 35q-158 46 -224 4q-14 -10 -31.5 -10t-31.5 10zM2091 82q15 -28 -1 -55t-48 -27h-363
q-33 0 -49 29l-96 178q-13 29 -49 29h-889q-33 0 -49 -29l-96 -178q-13 -29 -50 -29h-362q-31 0 -47.5 27t-1.5 55l717 1323q16 29 49 29h569q36 0 49 -29zM1251 555q32 0 48 27t1 55l-210 389q-15 29 -48.5 29t-50.5 -29l-211 -389q-14 -28 2 -55t47 -27h422z" />
    <glyph glyph-name="adieresis" unicode="&#xe4;" horiz-adv-x="2127" 
d="M807 1552q-65 0 -111.5 47t-46.5 111t46.5 111t111.5 47q66 0 112 -46.5t46 -111.5t-46 -111.5t-112 -46.5zM1411 1628q-35 -55 -98.5 -70t-118.5 19t-70 97t19 120q34 55 98 70t119 -19q55 -35 70 -98.5t-19 -118.5zM2091 82q15 -28 -1 -55t-48 -27h-363q-33 0 -49 29
l-96 178q-13 29 -49 29h-889q-33 0 -49 -29l-96 -178q-13 -29 -50 -29h-362q-31 0 -47.5 27t-1.5 55l717 1323q16 29 49 29h569q36 0 49 -29zM1251 555q32 0 48 27t1 55l-210 389q-15 29 -48.5 29t-50.5 -29l-211 -389q-14 -28 2 -55t47 -27h422z" />
    <glyph glyph-name="aring" unicode="&#xe5;" horiz-adv-x="2127" 
d="M2091 82q15 -28 -1 -55t-48 -27h-363q-33 0 -49 29l-96 178q-13 29 -49 29h-889q-33 0 -49 -29l-96 -178q-13 -29 -50 -29h-362q-31 0 -47.5 27t-1.5 55l717 1323q16 29 49 29h53q33 0 49 29t-2 57q-37 56 -37 118q0 97 71.5 163t168.5 59q79 -6 136.5 -62.5t66.5 -134.5
q6 -81 -35 -143q-18 -28 -2 -57t49 -29h51q36 0 49 -29zM1040 1733q-38 0 -65 -28t-27 -67q0 -38 27 -66t65 -28q40 0 67.5 28t27.5 66q0 39 -28 67t-67 28zM1251 555q32 0 48 27t1 55l-210 389q-15 29 -48.5 29t-50.5 -29l-211 -389q-14 -28 2 -55t47 -27h422z" />
    <glyph glyph-name="ae" unicode="&#xe6;" horiz-adv-x="2447" 
d="M2269 358q24 0 41 -16t17 -39v-246q0 -23 -17.5 -40t-40.5 -17h-1192q-23 0 -39 17t-16 40v123q0 23 -16 39.5t-39 16.5h-371q-33 0 -49 -29l-96 -178q-13 -29 -50 -29h-362q-31 0 -47.5 27t-1.5 55l717 1323q16 29 49 29h1513q23 0 39.5 -16.5t15.5 -39.5v-248
q0 -23 -16 -39t-39 -16h-753q-23 0 -39.5 -17t-16.5 -40v-86q0 -23 16.5 -39t39.5 -16h716q23 0 39.5 -16.5t16.5 -39.5v-209q0 -23 -16.5 -39t-39.5 -16h-716q-23 0 -39.5 -16t-16.5 -39v-88q0 -23 16.5 -39.5t39.5 -16.5h753zM1022 610v252q0 27 -20 43.5t-45.5 12
t-38.5 -28.5l-138 -252q-14 -28 2 -55t47 -27h138q23 0 39 16t16 39z" />
    <glyph glyph-name="ccedilla" unicode="&#xe7;" horiz-adv-x="2156" 
d="M2126 477q25 0 41 -17t14 -42q-7 -99 -22.5 -165.5t-51 -119t-84 -82.5t-133.5 -50.5t-187 -28.5t-255 -11q-23 0 -39 -16t-16 -39v-78q0 -114 -88 -200t-218 -103q-24 -2 -41.5 11t-21.5 36l-8 45q-3 22 9 41t32 23q58 14 94.5 54.5t36.5 92.5h-152q-23 0 -39 16t-16 39
v23q0 23 -16 39t-39 18q-137 2 -231.5 8t-175.5 25.5t-130 39.5t-88 68.5t-57.5 93t-30 133t-14 168.5t-2.5 218q0 122 1 196t11.5 157t21 127t43 95t62.5 73t95 47.5t125 33.5t168 16.5t208.5 9.5t261.5 1q168 0 272 -2t214 -9.5t170.5 -19.5t123.5 -36.5t93 -56t58 -81
t39 -109t17 -143.5q2 -25 -14.5 -43.5t-40.5 -18.5h-342q-19 0 -34 11t-19 28q-29 85 -128 103t-411 18q-292 0 -374 -12q-109 -16 -145 -70q-33 -50 -37 -187q-1 -37 -1 -128q0 -192 12 -250q18 -80 79 -110q65 -33 259 -37l209 -1q310 0 409 18t128 101q12 39 53 39h342z
" />
    <glyph glyph-name="egrave" unicode="&#xe8;" horiz-adv-x="2076" 
d="M1071 1573l-153 205q-20 28 -4.5 59t49.5 31h170q34 0 51 -31l102 -207q14 -28 -2 -54t-47 -26h-121q-25 0 -45 23zM2042 358q23 0 39 -16t16 -39v-246q0 -23 -16 -39t-39 -16l-1745 -2q-23 0 -39 16t-16 39v1323q0 23 16 39.5t39 16.5h1745q23 0 39 -16.5t16 -39.5v-248
q0 -23 -16 -39t-41 -16h-1305q-23 0 -39 -17t-16 -40v-86q0 -23 16 -39t39 -16h1268q23 0 40 -16.5t17 -39.5v-209q0 -23 -17 -39t-40 -16h-1268q-23 0 -39 -16t-16 -39v-88q0 -23 16 -39.5t39 -16.5h1307z" />
    <glyph glyph-name="eacute" unicode="&#xe9;" horiz-adv-x="2076" 
d="M1102 1550q-31 0 -47 26t-2 54l102 207q17 31 51 31h170q35 0 50 -31t-5 -59l-153 -205q-16 -23 -45 -23h-121zM2042 358q23 0 39 -16t16 -39v-246q0 -23 -16 -39t-39 -16l-1745 -2q-23 0 -39 16t-16 39v1323q0 23 16 39.5t39 16.5h1745q23 0 39 -16.5t16 -39.5v-248
q0 -23 -16 -39t-41 -16h-1305q-23 0 -39 -17t-16 -40v-86q0 -23 16 -39t39 -16h1268q23 0 40 -16.5t17 -39.5v-209q0 -23 -17 -39t-40 -16h-1268q-23 0 -39 -16t-16 -39v-88q0 -23 16 -39.5t39 -16.5h1307z" />
    <glyph glyph-name="ecircumflex" unicode="&#xea;" horiz-adv-x="2076" 
d="M848 1550q-35 0 -49.5 32t8.5 60l180 205q17 21 41 21h277q25 0 43 -21l180 -205q23 -28 8.5 -60t-51.5 -32h-111q-27 0 -43 19l-123 141q-17 19 -42 19t-42 -19l-123 -141q-16 -19 -40 -19h-113zM2042 358q23 0 39 -16t16 -39v-246q0 -23 -16 -39t-39 -16l-1745 -2
q-23 0 -39 16t-16 39v1323q0 23 16 39.5t39 16.5h1745q23 0 39 -16.5t16 -39.5v-248q0 -23 -16 -39t-41 -16h-1305q-23 0 -39 -17t-16 -40v-86q0 -23 16 -39t39 -16h1268q23 0 40 -16.5t17 -39.5v-209q0 -23 -17 -39t-40 -16h-1268q-23 0 -39 -16t-16 -39v-88
q0 -23 16 -39.5t39 -16.5h1307z" />
    <glyph glyph-name="edieresis" unicode="&#xeb;" horiz-adv-x="2076" 
d="M1079 1651q-25 -60 -85 -85.5t-120 -0.5t-85.5 85.5t-0.5 121.5q26 60 86.5 84t120.5 -1t85 -84.5t-1 -119.5zM1550 1651q-26 -60 -86.5 -85.5t-120.5 -0.5t-84.5 85t1.5 122q25 60 84.5 84t119.5 -1t85.5 -84.5t0.5 -119.5zM2042 358q23 0 39 -16t16 -39v-246
q0 -23 -16 -39t-39 -16l-1745 -2q-23 0 -39 16t-16 39v1323q0 23 16 39.5t39 16.5h1745q23 0 39 -16.5t16 -39.5v-248q0 -23 -16 -39t-41 -16h-1305q-23 0 -39 -17t-16 -40v-86q0 -23 16 -39t39 -16h1268q23 0 40 -16.5t17 -39.5v-209q0 -23 -17 -39t-40 -16h-1268
q-23 0 -39 -16t-16 -39v-88q0 -23 16 -39.5t39 -16.5h1307z" />
    <glyph glyph-name="igrave" unicode="&#xec;" horiz-adv-x="681" 
d="M549 1434q23 0 39 -16.5t16 -39.5v-1323q0 -23 -16 -39t-39 -16h-326q-23 0 -40 16t-17 39v1323q0 23 17 39.5t40 16.5h326zM334 1550q-29 0 -45 23l-156 205q-20 28 -4.5 59t49.5 31h172q32 0 49 -31l105 -207q13 -28 -3.5 -54t-47.5 -26h-119z" />
    <glyph glyph-name="iacute" unicode="&#xed;" horiz-adv-x="679" 
d="M625 1434q23 0 39 -16.5t16 -39.5v-1323q0 -23 -16 -39t-39 -16h-328q-23 0 -39 16t-16 39v1323q0 23 16 39.5t39 16.5h328zM670 1868q34 0 49 -31t-6 -59l-154 -205q-16 -23 -45 -23h-119q-32 0 -48.5 26t-2.5 54l105 207q17 31 49 31h172z" />
    <glyph glyph-name="icircumflex" unicode="&#xee;" horiz-adv-x="684" 
d="M434 1434q23 0 39 -16.5t16 -39.5v-1323q0 -23 -16 -39t-39 -16h-325q-23 0 -39.5 16t-16.5 39v1323q0 23 16.5 39.5t39.5 16.5h325zM631 1642q24 -28 9.5 -60t-50.5 -32h-113q-25 0 -41 19l-123 141q-17 19 -42 19t-42 -19l-123 -141q-16 -19 -40 -19h-113
q-36 0 -50.5 32t9.5 60l180 205q18 21 41 21h277q23 0 41 -21z" />
    <glyph glyph-name="idieresis" unicode="&#xef;" horiz-adv-x="681" 
d="M412 1434q23 0 39 -16.5t16 -39.5v-1323q0 -23 -16 -39t-39 -16h-328q-23 0 -39 16t-16 39v1323q0 23 16 39.5t39 16.5h328zM160 1651q-25 -60 -85 -85.5t-120 -0.5q-61 26 -86 86.5t0 120.5t85 84.5t120 -1.5q61 -25 86 -84.5t0 -119.5zM483 1552q-64 0 -110.5 46.5
t-46.5 111.5t46.5 111.5t110.5 46.5q65 0 111.5 -47t46.5 -111t-46.5 -111t-111.5 -47z" />
    <glyph glyph-name="eth" unicode="&#xf0;" horiz-adv-x="2269" 
d="M1243 1434q160 0 260.5 -1t208 -9.5t167.5 -15.5t124.5 -32t94.5 -45.5t62 -69t42.5 -90t21 -120.5t11.5 -148.5t1 -185.5q0 -146 -2 -226.5t-20.5 -169.5t-38 -129t-79 -85t-118 -58.5t-179 -28.5t-238 -16.5t-318.5 -1.5l-944 -2q-23 0 -38 15.5t-15 37.5v436
q0 22 -14.5 37t-36.5 15h-15q-23 0 -38 15t-15 38v240q0 22 15 36.5t38 14.5h15q22 0 36.5 15.5t14.5 37.5v444q0 22 15 37t38 15h944zM1243 358q298 0 381 12q106 15 140 68q30 46 33 175l1 102q0 174 -12 227q-18 72 -79 100q-67 29 -269 32q-57 1 -197 1h-506
q-22 0 -36.5 -15.5t-14.5 -37.5v-84q0 -22 14.5 -37.5t36.5 -15.5h316q22 0 37.5 -14.5t15.5 -36.5v-240q0 -23 -15.5 -38t-37.5 -15h-316q-22 0 -36.5 -15t-14.5 -37v-77q0 -22 15 -38t36 -16h508z" />
    <glyph glyph-name="ntilde" unicode="&#xf1;" horiz-adv-x="2181" 
d="M807 1669q-22 15 -23.5 41t17.5 45q81 75 200 84q106 9 240 -33q159 -47 225 -4q14 10 31.5 10t32.5 -10l86 -61q22 -15 23 -41t-19 -45q-82 -75 -199 -84q-12 -2 -39 -2q-86 0 -202 35q-158 46 -224 4q-14 -10 -31.5 -10t-31.5 10zM2124 1434q23 0 39 -16.5t16 -39.5
v-1323q0 -23 -16 -39t-39 -16h-539q-25 0 -43 18l-766 856q-25 29 -60.5 15.5t-35.5 -51.5v-783q0 -23 -16 -39t-39 -16h-328q-23 0 -39 16t-16 39v1323q0 23 16 39.5t39 16.5h496q25 0 41 -19l811 -907q26 -29 62 -15t36 52v833q0 23 16 39.5t39 16.5h326z" />
    <glyph glyph-name="ograve" unicode="&#xf2;" 
d="M1094 1573l-154 205q-22 28 -6 59t51 31h170q35 0 49 -31l105 -207q14 -28 -3 -54t-49 -26h-118q-29 0 -45 23zM1194 1470q160 0 260.5 -1t208 -10t167.5 -16.5t124.5 -33.5t94.5 -48t62.5 -73t42.5 -94.5t20.5 -127t11.5 -157t1 -196.5t-1 -196t-11.5 -157t-20.5 -127.5
t-42 -94.5t-62 -72.5t-94.5 -48t-124.5 -34t-167.5 -16t-208 -9.5t-261.5 -1t-261.5 1t-209 9.5t-168.5 16.5t-125 33.5t-95 47.5t-62 73t-42.5 94.5t-21 127t-11.5 157t-1 196.5q0 122 1 196t11.5 157t21 127.5t43 95t62.5 72.5t95 48t125 34t168 16.5t209 9.5t261 1z
M1194 315q292 0 375 12q107 16 143 70q32 49 36 185q1 36 1 129q0 194 -12 251q-17 82 -78 112q-64 33 -255 37q-60 1 -212 1q-292 0 -374 -12q-108 -16 -145 -70q-33 -50 -37 -186l-1 -131v0q0 -192 12 -250q18 -80 79 -110q65 -33 259 -37z" />
    <glyph glyph-name="oacute" unicode="&#xf3;" 
d="M1122 1550q-31 0 -47 26t-2 54l105 207q14 31 49 31h170q35 0 51 -31t-6 -59l-154 -205q-16 -23 -45 -23h-121zM1194 1470q160 0 260.5 -1t208 -10t167.5 -16.5t124.5 -33.5t94.5 -48t62.5 -73t42.5 -94.5t20.5 -127t11.5 -157t1 -196.5t-1 -196t-11.5 -157t-20.5 -127.5
t-42 -94.5t-62 -72.5t-94.5 -48t-124.5 -34t-167.5 -16t-208 -9.5t-261.5 -1t-261.5 1t-209 9.5t-168.5 16.5t-125 33.5t-95 47.5t-62 73t-42.5 94.5t-21 127t-11.5 157t-1 196.5q0 122 1 196t11.5 157t21 127.5t43 95t62.5 72.5t95 48t125 34t168 16.5t209 9.5t261 1z
M1194 315q292 0 375 12q107 16 143 70q32 49 36 185q1 36 1 129q0 194 -12 251q-17 82 -78 112q-64 33 -255 37q-60 1 -212 1q-292 0 -374 -12q-108 -16 -145 -70q-33 -50 -37 -186l-1 -131v0q0 -192 12 -250q18 -80 79 -110q65 -33 259 -37z" />
    <glyph glyph-name="ocircumflex" unicode="&#xf4;" 
d="M872 1550q-35 0 -49.5 32t8.5 60l181 205q18 21 41 21h276q22 0 43 -21l180 -205q23 -28 7.5 -60t-50.5 -32h-110q-27 0 -43 19l-123 141q-17 19 -42 19t-42 -19l-123 -141q-16 -19 -41 -19h-113zM1194 1470q160 0 260.5 -1t208 -10t167.5 -16.5t124.5 -33.5t94.5 -48
t62.5 -73t42.5 -94.5t20.5 -127t11.5 -157t1 -196.5t-1 -196t-11.5 -157t-20.5 -127.5t-42 -94.5t-62 -72.5t-94.5 -48t-124.5 -34t-167.5 -16t-208 -9.5t-261.5 -1t-261.5 1t-209 9.5t-168.5 16.5t-125 33.5t-95 47.5t-62 73t-42.5 94.5t-21 127t-11.5 157t-1 196.5
q0 122 1 196t11.5 157t21 127.5t43 95t62.5 72.5t95 48t125 34t168 16.5t209 9.5t261 1zM1194 315q292 0 375 12q107 16 143 70q32 49 36 185q1 36 1 129q0 194 -12 251q-17 82 -78 112q-64 33 -255 37q-60 1 -212 1q-292 0 -374 -12q-108 -16 -145 -70q-33 -50 -37 -186
l-1 -131v0q0 -192 12 -250q18 -80 79 -110q65 -33 259 -37z" />
    <glyph glyph-name="otilde" unicode="&#xf5;" 
d="M788 1669q-23 15 -24.5 41t18.5 45q81 75 199 84q108 9 242 -33q158 -46 223 -4q14 10 32 10t31 -10l86 -61q22 -15 24 -41t-17 -45q-85 -75 -201 -84q-12 -2 -39 -2q-88 0 -201 35q-161 47 -223 4q-15 -10 -32.5 -10t-31.5 10zM1194 1470q160 0 260.5 -1t208 -10
t167.5 -16.5t124.5 -33.5t94.5 -48t62.5 -73t42.5 -94.5t20.5 -127t11.5 -157t1 -196.5t-1 -196t-11.5 -157t-20.5 -127.5t-42 -94.5t-62 -72.5t-94.5 -48t-124.5 -34t-167.5 -16t-208 -9.5t-261.5 -1t-261.5 1t-209 9.5t-168.5 16.5t-125 33.5t-95 47.5t-62 73t-42.5 94.5
t-21 127t-11.5 157t-1 196.5q0 122 1 196t11.5 157t21 127.5t43 95t62.5 72.5t95 48t125 34t168 16.5t209 9.5t261 1zM1194 315q292 0 375 12q107 16 143 70q32 49 36 185q1 36 1 129q0 194 -12 251q-17 82 -78 112q-64 33 -255 37q-60 1 -212 1q-292 0 -374 -12
q-108 -16 -145 -70q-33 -50 -37 -186l-1 -131v0q0 -192 12 -250q18 -80 79 -110q65 -33 259 -37z" />
    <glyph glyph-name="odieresis" unicode="&#xf6;" 
d="M958 1552q-66 0 -111.5 46.5t-45.5 111.5t45.5 111.5t111.5 46.5q64 0 110 -46.5t46 -111.5t-46 -111.5t-110 -46.5zM1427 1552q-66 0 -111.5 46.5t-45.5 111.5t45.5 111.5t111.5 46.5q65 0 111.5 -47t46.5 -111t-46.5 -111t-111.5 -47zM1194 1470q160 0 260.5 -1
t208 -10t167.5 -16.5t124.5 -33.5t94.5 -48t62.5 -73t42.5 -94.5t20.5 -127t11.5 -157t1 -196.5t-1 -196t-11.5 -157t-20.5 -127.5t-42 -94.5t-62 -72.5t-94.5 -48t-124.5 -34t-167.5 -16t-208 -9.5t-261.5 -1t-261.5 1t-209 9.5t-168.5 16.5t-125 33.5t-95 47.5t-62 73
t-42.5 94.5t-21 127t-11.5 157t-1 196.5q0 122 1 196t11.5 157t21 127.5t43 95t62.5 72.5t95 48t125 34t168 16.5t209 9.5t261 1zM1194 315q292 0 375 12q107 16 143 70q32 49 36 185q1 36 1 129q0 194 -12 251q-17 82 -78 112q-64 33 -255 37q-60 1 -212 1q-292 0 -374 -12
q-108 -16 -145 -70q-33 -50 -37 -186l-1 -131v0q0 -192 12 -250q18 -80 79 -110q65 -33 259 -37z" />
    <glyph glyph-name="divide" unicode="&#xf7;" horiz-adv-x="1263" 
d="M1206 889q23 0 39.5 -16t16.5 -39v-234q0 -23 -16.5 -39t-39.5 -16h-1036q-23 0 -39 16t-16 39v234q0 23 16 39t39 16h1036zM569 1016l-12 12q-31 43 -38 89.5t6 84t42 66.5t66.5 42.5t84 6.5t89.5 -37q3 -2 5.5 -4.5t5 -5.5t3.5 -4q31 -43 38 -89.5t-6.5 -84
t-42.5 -66.5t-67 -42t-84.5 -6t-89.5 38zM807 418q6 -4 14 -12q31 -43 38 -89.5t-6.5 -84t-42.5 -66.5t-67 -42.5t-84.5 -6.5t-89.5 37q-2 2 -6 7t-6 7q-31 43 -38 89.5t6 84t42 66.5t66.5 42t84 6t89.5 -38z" />
    <glyph glyph-name="oslash" unicode="&#xf8;" horiz-adv-x="2238" 
d="M2210 1300q11 -20 5.5 -42.5t-24.5 -34.5l-18 -11q-15 -9 -22 -25.5t-3 -33.5q25 -133 25 -440q0 -123 -1 -196.5t-11.5 -157t-20.5 -127t-42.5 -94.5t-62.5 -73t-95 -47.5t-124.5 -33.5t-167.5 -16.5t-208.5 -9.5t-261.5 -1q-375 0 -555.5 16.5t-274.5 73.5
q-30 16 -59 0l-23 -14q-19 -12 -41.5 -7t-34.5 25l-51 82q-12 20 -6.5 43t25.5 35l20 12q33 20 27 60q-23 120 -23 430q0 122 1 196t11.5 157t21 127.5t43 95t62.5 72.5t95 48t125 34t168 16.5t208.5 9.5t260.5 1q362 0 542.5 -16.5t278.5 -71.5q26 -16 55 2l27 17
q20 12 43 6.5t35 -25.5zM621 596q0 -32 28 -48t56 1l739 457q35 22 23.5 62t-52.5 42q-28 0 -107 1t-130 1q-294 0 -376 -12q-108 -16 -145 -70q-34 -50 -38 -186q-1 -39 -1 -131q0 -65 3 -117zM1178 315q293 0 376 12q107 16 144 71q32 50 36 186l1 127q0 94 -2 131
q0 32 -28 47t-56 -2l-756 -467q-35 -22 -24.5 -61.5t51.5 -41.5q70 -2 258 -2z" />
    <glyph glyph-name="ugrave" unicode="&#xf9;" horiz-adv-x="2138" 
d="M1047 1573l-156 205q-20 28 -4.5 59t49.5 31h172q32 0 49 -31l103 -207q13 -28 -3 -54t-47 -26h-120q-27 0 -43 23zM2103 715q0 -306 -10 -398q-17 -163 -87 -234q-76 -78 -266 -103q-160 -21 -591 -21q-445 0 -606 23q-185 27 -258 106q-67 73 -83 240q-9 91 -9 387v661
q0 23 16 39.5t39 16.5h325q23 0 40.5 -16.5t17.5 -39.5v-661q0 -197 12 -255q17 -80 77 -110q63 -31 248 -34q53 -1 181 -1q270 0 347 12q100 16 134 72q31 51 34 193l1 121v663q0 23 17 39.5t40 16.5h326q23 0 39 -16.5t16 -39.5v-661z" />
    <glyph glyph-name="uacute" unicode="&#xfa;" horiz-adv-x="2138" 
d="M1081 1550q-31 0 -47 26t-2 54l103 207q17 31 51 31h170q35 0 50 -31t-5 -59l-154 -205q-16 -23 -45 -23h-121zM2103 715q0 -306 -10 -398q-17 -163 -87 -234q-76 -78 -266 -103q-160 -21 -591 -21q-445 0 -606 23q-185 27 -258 106q-67 73 -83 240q-9 91 -9 387v661
q0 23 16 39.5t39 16.5h325q23 0 40.5 -16.5t17.5 -39.5v-661q0 -197 12 -255q17 -80 77 -110q63 -31 248 -34q53 -1 181 -1q270 0 347 12q100 16 134 72q31 51 34 193l1 121v663q0 23 17 39.5t40 16.5h326q23 0 39 -16.5t16 -39.5v-661z" />
    <glyph glyph-name="ucircumflex" unicode="&#xfb;" horiz-adv-x="2138" 
d="M829 1554q-36 0 -50.5 32.5t9.5 60.5l181 204q17 21 41 21h276q22 0 43 -21l178 -204q24 -28 9.5 -60.5t-50.5 -32.5h-110q-27 0 -43 19l-123 139q-17 20 -42 20t-42 -20l-123 -139q-16 -19 -41 -19h-113zM2103 715q0 -306 -10 -398q-17 -163 -87 -234q-76 -78 -266 -103
q-160 -21 -591 -21q-445 0 -606 23q-185 27 -258 106q-67 73 -83 240q-9 91 -9 387v661q0 23 16 39.5t39 16.5h325q23 0 40.5 -16.5t17.5 -39.5v-661q0 -197 12 -255q17 -80 77 -110q63 -31 248 -34q53 -1 181 -1q270 0 347 12q100 16 134 72q31 51 34 193l1 121v663
q0 23 17 39.5t40 16.5h326q23 0 39 -16.5t16 -39.5v-661z" />
    <glyph glyph-name="udieresis" unicode="&#xfc;" horiz-adv-x="2138" 
d="M913 1556q-65 0 -111 46t-46 112q0 65 46.5 111.5t110.5 46.5q65 0 111.5 -47t46.5 -111q0 -66 -46.5 -112t-111.5 -46zM1382 1556q-65 0 -110 46t-45 112q0 65 45.5 111.5t109.5 46.5q66 0 112 -46.5t46 -111.5q0 -66 -46 -112t-112 -46zM2103 715q0 -306 -10 -398
q-17 -163 -87 -234q-76 -78 -266 -103q-160 -21 -591 -21q-445 0 -606 23q-185 27 -258 106q-67 73 -83 240q-9 91 -9 387v661q0 23 16 39.5t39 16.5h325q23 0 40.5 -16.5t17.5 -39.5v-661q0 -197 12 -255q17 -80 77 -110q63 -31 248 -34q53 -1 181 -1q270 0 347 12
q100 16 134 72q31 51 34 193l1 121v663q0 23 17 39.5t40 16.5h326q23 0 39 -16.5t16 -39.5v-661z" />
    <glyph glyph-name="yacute" unicode="&#xfd;" horiz-adv-x="1951" 
d="M866 1554q-31 0 -47 26t-2 54l105 207q14 31 49 31h170q35 0 51 -31t-6 -59l-154 -205q-16 -23 -45 -23h-121zM1858 1434q37 0 51 -34.5t-11 -60.5l-724 -766q-15 -15 -15 -38v-480q0 -23 -17 -39t-40 -16h-326q-23 0 -39 16t-16 39v477q0 23 -16 39l-728 768
q-25 26 -10.5 60.5t51.5 34.5h361q25 0 41 -19l477 -504q17 -17 41 -17t41 17l477 506q20 17 41 17h361z" />
    <glyph glyph-name="thorn" unicode="&#xfe;" horiz-adv-x="1351" 
d="M664 1243q118 0 192 -0.5t153 -7t123 -11.5t91.5 -23t69.5 -33.5t46 -51t31.5 -66t15 -88.5t8.5 -109t1 -136q0 -86 -1 -136.5t-8.5 -109t-14.5 -88.5t-30.5 -66t-45.5 -51t-69.5 -33.5t-92 -23.5t-123.5 -11.5t-153.5 -7t-192.5 -0.5h-25q-22 0 -37.5 -14.5t-15.5 -36.5
v-86q0 -23 -14.5 -38t-36.5 -15h-240q-23 0 -38 15t-15 38v1327q0 23 15 38.5t38 15.5h240q22 0 36.5 -15.5t14.5 -38.5v-84q0 -22 15.5 -37.5t37.5 -15.5h25zM664 453q247 0 306 10q71 12 90 54q14 32 13 139v59q0 138 -3 161q-8 58 -51 78q-47 23 -214 25h-141h-25
q-22 0 -37.5 -14.5t-15.5 -36.5v-422q0 -22 15.5 -37.5t37.5 -15.5h25z" />
    <glyph glyph-name="ydieresis" unicode="&#xff;" horiz-adv-x="1951" 
d="M707 1556q-66 0 -112 46t-46 112q0 65 46 111.5t112 46.5q64 0 110.5 -46.5t46.5 -111.5q0 -66 -46 -112t-111 -46zM1176 1556q-65 0 -111.5 46t-46.5 112q0 64 47 111t111 47q66 0 111.5 -46.5t45.5 -111.5q0 -66 -45.5 -112t-111.5 -46zM1858 1434q37 0 51 -34.5
t-11 -60.5l-724 -766q-15 -15 -15 -38v-480q0 -23 -17 -39t-40 -16h-326q-23 0 -39 16t-16 39v477q0 23 -16 39l-728 768q-25 26 -10.5 60.5t51.5 34.5h361q25 0 41 -19l477 -504q17 -17 41 -17t41 17l477 506q20 17 41 17h361z" />
    <glyph glyph-name="idotless" unicode="&#x131;" horiz-adv-x="542" 
d="M485 1149q23 0 39.5 -16t16.5 -39v-1356q0 -23 -16.5 -39t-39.5 -16h-233q-23 0 -39 16t-16 39v1356q0 23 16 39t39 16h233z" />
    <glyph glyph-name="Lslash" unicode="&#x141;" horiz-adv-x="1914" 
d="M1851 319q22 0 37 -15.5t15 -37.5v-213q0 -22 -15 -37.5t-37 -15.5h-1552q-22 0 -36.5 15.5t-14.5 37.5v248q0 31 -27 45.5t-53 -0.5q-18 -11 -40 -6.5t-34 22.5l-53 89q-12 19 -7.5 40t23.5 31l164 103q27 17 27 45v712q0 22 14.5 37t36.5 15h334q22 0 36.5 -15
t14.5 -37v-376q0 -31 27 -46.5t53 1.5l262 161q19 12 40.5 7.5t33.5 -23.5l53 -88q12 -19 7.5 -40.5t-23.5 -31.5l-426 -264q-27 -17 -27 -45v-266q0 -22 15.5 -37t37.5 -15h1114z" />
    <glyph glyph-name="lslash" unicode="&#x142;" horiz-adv-x="1914" 
d="M1851 319q22 0 37 -15.5t15 -37.5v-213q0 -22 -15 -37.5t-37 -15.5h-1552q-22 0 -36.5 15.5t-14.5 37.5v248q0 31 -27 45.5t-53 -0.5q-18 -11 -40 -6.5t-34 22.5l-53 89q-12 19 -7.5 40t23.5 31l164 103q27 17 27 45v712q0 22 14.5 37t36.5 15h334q22 0 36.5 -15
t14.5 -37v-376q0 -31 27 -46.5t53 1.5l262 161q19 12 40.5 7.5t33.5 -23.5l53 -88q12 -19 7.5 -40.5t-23.5 -31.5l-426 -264q-27 -17 -27 -45v-266q0 -22 15.5 -37t37.5 -15h1114z" />
    <glyph glyph-name="OE" unicode="&#x152;" horiz-adv-x="3366" 
d="M3312 358q23 0 39 -16t16 -39v-244q0 -25 -16 -41t-39 -16l-1416 -2h-12q-102 -24 -257.5 -31.5t-432.5 -7.5q-161 0 -261.5 1t-209 9.5t-168.5 16.5t-125 33.5t-95 47.5t-62 73t-42.5 94.5t-21 127t-11.5 157t-1 196.5q0 122 1 196t11.5 157.5t21 127.5t43 94.5t62.5 73
t95 48.5t125.5 33.5t168 16.5t208.5 10t261 1q275 0 430.5 -7.5t257.5 -31.5q2 0 6 -1t6 -1h1418q23 0 39 -16.5t16 -39.5v-248q0 -23 -17 -39t-40 -16h-1057q-23 0 -39 -16t-16 -39v-88q0 -23 16 -39t39 -16h1020q23 0 39 -16.5t16 -39.5v-207q0 -23 -16 -39t-39 -16h-1020
q-23 0 -39 -17t-16 -40v-86q0 -24 16 -41t39 -17h1059zM1749 375v686q0 23 -16 39t-39 16h-1004q-23 0 -39 -16t-16 -39v-686q0 -23 16 -39.5t39 -16.5h1004q23 0 39 16.5t16 39.5z" />
    <glyph glyph-name="oe" unicode="&#x153;" horiz-adv-x="3362" 
d="M3308 358q23 0 39 -16t16 -39v-246q0 -23 -16 -39t-39 -16l-1395 -2q-11 0 -15 -2q-102 -26 -260 -33.5t-444 -7.5q-161 0 -261.5 1t-209 9.5t-168.5 16.5t-125 33.5t-95 47.5t-62 73t-42.5 94.5t-21 127t-11.5 157t-1 196.5q0 122 1 196t11.5 157t21 127.5t43 95
t62.5 72.5t95 48t125 34t168 16.5t209 9.5t261 1q500 0 672 -34q2 -2 10 -2h1432q23 0 39 -16.5t16 -39.5l-2 -248q0 -23 -16.5 -39t-39.5 -16h-1056q-23 0 -39.5 -17t-16.5 -40v-86q0 -23 16.5 -39t39.5 -16h1020q23 0 39 -16.5t16 -39.5v-209q0 -23 -16 -39t-39 -16h-1020
q-23 0 -39.5 -16t-16.5 -39v-88q0 -23 16.5 -39.5t39.5 -16.5h1059zM1194 315q292 0 375 12q107 16 143 70q32 49 36 185q1 36 1 129q0 194 -12 251q-17 82 -78 112q-64 33 -255 37q-60 1 -212 1q-292 0 -374 -12q-108 -16 -145 -70q-33 -50 -37 -186l-1 -131v0
q0 -192 12 -250q18 -80 79 -110q65 -33 259 -37z" />
    <glyph glyph-name="Scaron" unicode="&#x160;" horiz-adv-x="2150" 
d="M973 1571l-185 213q-23 26 -9 57t48 31h121q23 0 39 -19l127 -145q15 -17 39 -17t39 17l127 145q16 19 39 19h121q34 0 48 -31t-9 -57l-187 -213q-17 -17 -39 -17h-278q-24 0 -41 17zM1153 877q447 0 592 -13q211 -20 296 -90q81 -68 96 -224q5 -49 5 -112q0 -68 -5 -120
t-20.5 -97.5t-34.5 -78.5t-55.5 -61t-74.5 -46t-101.5 -32t-126.5 -22t-158.5 -12.5t-188.5 -6t-226 -1.5q-216 0 -344 4t-251.5 19.5t-186 42t-114 76t-69.5 117.5t-22 169q-1 23 14.5 39t38.5 16h334q22 0 36.5 -14.5t14.5 -36.5v-22q0 -22 15.5 -37t37.5 -15h994
q23 0 38 15t15 37v135q0 22 -15 36.5t-38 14.5h-496q-443 0 -587 14q-207 20 -288 90q-79 68 -93 224q-5 47 -5 110q0 113 15 188t62.5 131t108.5 86t183 47.5t254 22.5t350 5q122 0 212.5 -1.5t179.5 -6.5t151.5 -12.5t122.5 -20.5t99.5 -30t75.5 -42t57.5 -55t38 -70.5
t24.5 -87t10 -105.5q0 -22 -15 -38.5t-38 -16.5h-334q-23 0 -38.5 15.5t-15.5 37.5v21q0 22 -14.5 37.5t-36.5 15.5h-960q-22 0 -36.5 -15.5t-14.5 -37.5v-133q0 -23 14.5 -38t36.5 -15h393h88z" />
    <glyph glyph-name="scaron" unicode="&#x161;" horiz-adv-x="2150" 
d="M973 1571l-187 213q-22 26 -8.5 57t47.5 31h121q25 0 41 -19l125 -145q15 -17 39 -17t41 17l125 145q16 19 41 19h121q32 0 46.5 -31t-7.5 -57l-187 -213q-17 -17 -39 -17h-280q-22 0 -39 17zM1153 877q447 0 592 -13q211 -20 296 -90q81 -68 96 -224q5 -49 5 -112
q0 -68 -5 -120t-20.5 -97.5t-34.5 -78.5t-55.5 -61t-74.5 -46t-101.5 -32t-126.5 -22t-158.5 -12.5t-188.5 -6t-226 -1.5q-216 0 -344 4t-251.5 19.5t-186 42t-114 76t-69.5 117.5t-22 169q-1 23 14.5 39t38.5 16h342q42 0 51 -36q17 -63 102.5 -76t401.5 -13h39
q376 0 462.5 16.5t86.5 102.5t-86 102.5t-463 16.5q-443 0 -587 14q-207 20 -288 90q-79 68 -93 224q-5 47 -5 110q0 113 15 188t62.5 131t108.5 86t183 47.5t254 22.5t350 5q122 0 212.5 -1.5t179.5 -6.5t151.5 -12.5t122.5 -20.5t99.5 -30t75.5 -42t57.5 -55t38 -70.5
t24.5 -87t10 -105.5q0 -22 -15 -38.5t-38 -16.5h-342q-18 0 -32.5 11.5t-19.5 29.5q-14 60 -102.5 73t-421.5 13q-373 0 -452.5 -16.5t-79.5 -104.5q0 -86 78.5 -102t441.5 -16h12z" />
    <glyph glyph-name="Ydieresis" unicode="&#x178;" horiz-adv-x="1959" 
d="M715 1556q-65 0 -111.5 46t-46.5 112q0 64 46.5 111t111.5 47q66 0 111.5 -46.5t45.5 -111.5q0 -66 -45.5 -112t-111.5 -46zM1184 1556q-65 0 -110.5 46t-45.5 112q0 65 46 111.5t110 46.5q66 0 111.5 -46.5t45.5 -111.5q0 -66 -45.5 -112t-111.5 -46zM1874 1434
q35 0 48.5 -31.5t-9.5 -56.5l-731 -775q-15 -12 -15 -34v-484q0 -23 -15.5 -38t-37.5 -15h-334q-22 0 -36.5 15t-14.5 38v482q0 17 -14 34l-733 777q-24 25 -10.5 56.5t48.5 31.5h369q22 0 39 -17l481 -508q15 -17 38 -17t38 17l481 508q17 17 39 17h369z" />
    <glyph glyph-name="Zcaron" unicode="&#x17d;" horiz-adv-x="2099" 
d="M934 1571l-186 213q-22 26 -9 57t47 31h121q25 0 41 -19l125 -145q15 -17 40 -17t40 17l125 145q16 19 41 19h121q32 0 46.5 -31t-7.5 -57l-187 -213q-17 -17 -39 -17h-280q-22 0 -39 17zM975 416q-22 -14 -25.5 -37.5t11.5 -41.5t40 -18h1045q23 0 38 -15.5t15 -37.5
v-213q0 -22 -15 -37.5t-38 -15.5h-1866q-23 0 -38 15.5t-15 37.5v238q0 29 25 43l1112 684q22 14 24.5 37.5t-13 42t-40.5 18.5h-1055q-23 0 -38 14.5t-15 36.5v215q0 22 15 37t38 15h1866q23 0 38 -15t15 -37v-237q0 -28 -24 -45z" />
    <glyph glyph-name="zcaron" unicode="&#x17e;" horiz-adv-x="2099" 
d="M934 1571l-186 213q-22 26 -9 57t47 31h121q25 0 41 -19l125 -145q15 -17 40 -17t40 17l125 145q16 19 41 19h121q32 0 46.5 -31t-7.5 -57l-187 -213q-17 -17 -39 -17h-280q-22 0 -39 17zM975 416q-22 -14 -25.5 -37.5t11.5 -41.5t40 -18h1045q23 0 38 -15.5t15 -37.5
v-213q0 -22 -15 -37.5t-38 -15.5h-1866q-23 0 -38 15.5t-15 37.5v238q0 29 25 43l1112 684q22 14 24.5 37.5t-13 42t-40.5 18.5h-1055q-23 0 -38 14.5t-15 36.5v215q0 22 15 37t38 15h1866q23 0 38 -15t15 -37v-237q0 -28 -24 -45z" />
    <glyph glyph-name="circumflexmod" unicode="&#x2c6;" horiz-adv-x="993" 
d="M942 1647q24 -28 9.5 -60.5t-50.5 -32.5h-113q-24 0 -40 19l-123 139q-17 20 -42 20t-42 -20l-123 -139q-16 -19 -41 -19h-113q-36 0 -50.5 32.5t9.5 60.5l180 204q17 21 41 21h277q23 0 41 -21z" />
    <glyph glyph-name="caronmod" unicode="&#x2c7;" horiz-adv-x="993" 
d="M901 1872q35 0 50.5 -33t-9.5 -59l-178 -207q-19 -19 -43 -19h-277q-25 0 -41 19l-180 207q-25 26 -9.5 59t50.5 33h113q23 0 41 -21l123 -139q17 -19 42 -19t42 19l123 139q18 21 40 21h113z" />
    <glyph glyph-name="tildemod" unicode="&#x2dc;" horiz-adv-x="1101" 
d="M1061 1745q22 -15 23.5 -42t-17.5 -44q-80 -74 -201 -86h-39q-94 0 -200 33q-157 48 -226 4q-30 -20 -63 0l-84 61q-23 15 -24.5 42t18.5 44q78 75 198 84q106 9 242 -31q155 -48 223 -4q13 9 32 8.5t32 -10.5z" />
    <glyph glyph-name="endash" unicode="&#x2013;" horiz-adv-x="1267" 
d="M1210 893q23 0 39.5 -16t16.5 -39v-234q0 -23 -16.5 -39t-39.5 -16h-1036q-23 0 -39 16t-16 39v234q0 23 16 39t39 16h1036z" />
    <glyph glyph-name="emdash" unicode="&#x2014;" horiz-adv-x="1931" 
d="M1874 889q23 0 39 -16t16 -39v-234q0 -23 -16 -39t-39 -16h-1700q-23 0 -39 16t-16 39v234q0 23 16 39t39 16h1700z" />
    <glyph glyph-name="quoteleft" unicode="&#x2018;" horiz-adv-x="571" 
d="M516 1079q23 0 39 -16t16 -39v-248q0 -23 -16 -39t-39 -16h-301q-23 0 -39 16t-16 39v303q0 134 86.5 234.5t216.5 122.5q23 3 42 -10.5t23 -36.5l11 -74q3 -22 -9 -39.5t-32 -22.5q-76 -22 -113 -94q-14 -28 2 -54t47 -26h82z" />
    <glyph glyph-name="quoteright" unicode="&#x2019;" horiz-adv-x="571" 
d="M512 1434q23 0 39 -16.5t16 -39.5v-303q0 -133 -86.5 -233.5t-216.5 -120.5q-23 -5 -41.5 8.5t-21.5 38.5l-13 72q-2 22 9.5 39.5t31.5 23.5q75 18 113 92q14 28 -2 54t-47 26h-82q-23 0 -39 16t-16 39v248q0 23 16 39.5t39 16.5h301z" />
    <glyph glyph-name="quotesinglbase" unicode="&#x201a;" horiz-adv-x="536" 
d="M479 358q23 0 39.5 -16t16.5 -39v-303q0 -133 -87 -233.5t-217 -120.5q-23 -4 -41.5 10t-21.5 37l-12 74q-2 21 9.5 38t31.5 23q77 21 114 94q14 27 -1.5 52.5t-45.5 25.5h-86q-23 0 -39 17t-16 40v246q0 23 16 39t39 16h301z" />
    <glyph glyph-name="quotereversed" unicode="&#x201b;" horiz-adv-x="571" 
d="M516 1434q23 0 39 -16.5t16 -39.5v-248q0 -23 -16 -39t-39 -16h-82q-31 0 -47 -26t-2 -54q37 -72 113 -94q20 -5 32 -22t9 -39l-11 -74q-4 -23 -23 -36.5t-42 -10.5q-130 22 -216.5 122t-86.5 234v303q0 23 16 39.5t39 16.5h301z" />
    <glyph glyph-name="quotedblleft" unicode="&#x201c;" horiz-adv-x="1032" 
d="M516 1071q23 0 39 -16t16 -39v-248q0 -23 -16 -39t-39 -16h-301q-23 0 -39 16t-16 39v303q0 134 86.5 235t216.5 121q23 3 42 -10.5t23 -36.5l11 -73q3 -21 -8.5 -38.5t-32.5 -23.5q-76 -22 -113 -94q-14 -28 2 -54t47 -26h82zM977 1071q23 0 39 -16t16 -39v-248
q0 -23 -16 -39t-39 -16h-299q-23 0 -40 16t-17 39v303q0 134 87 235t216 121q25 3 43.5 -10.5t21.5 -36.5l10 -73q3 -21 -8.5 -38.5t-32.5 -23.5q-75 -21 -112 -94q-14 -28 2.5 -54t48.5 -26h80z" />
    <glyph glyph-name="quotedblright" unicode="&#x201d;" horiz-adv-x="1032" 
d="M973 1434q23 0 39 -16.5t16 -39.5v-303q0 -134 -86.5 -234t-216.5 -122q-23 -3 -41.5 10.5t-21.5 36.5l-11 74q-3 22 8.5 39.5t32.5 21.5q76 22 113 94q13 28 -3.5 54t-47.5 26h-80q-24 0 -41 16t-17 39v248q0 23 17.5 39.5t40.5 16.5h299zM512 1434q23 0 39 -16.5
t16 -39.5v-303q0 -134 -86.5 -234t-216.5 -122q-23 -3 -41.5 10.5t-21.5 36.5l-13 74q-2 22 9.5 39.5t31.5 21.5q76 22 113 94q14 28 -2 54t-47 26h-82q-23 0 -39 16t-16 39v248q0 23 16 39.5t39 16.5h301z" />
    <glyph glyph-name="quotedblbase" unicode="&#x201e;" horiz-adv-x="997" 
d="M940 360q23 0 39 -16t16 -39v-303q0 -134 -86.5 -234t-216.5 -122q-23 -3 -41.5 10.5t-21.5 36.5l-11 74q-3 22 8 38.5t33 22.5q76 22 113 94q13 28 -3.5 54t-47.5 26h-80q-23 0 -40 16t-17 39v248q0 23 17 39t40 16h299zM479 360q23 0 39.5 -16t16.5 -39v-303
q0 -134 -87 -234t-217 -122q-23 -3 -41.5 10.5t-21.5 36.5l-12 74q-2 22 9.5 38.5t31.5 22.5q75 21 112 94q14 28 -2 54t-47 26h-82q-23 0 -39 16t-16 39v248q0 23 16 39t39 16h301z" />
    <glyph glyph-name="dagger" unicode="&#x2020;" horiz-adv-x="1067" 
d="M1010 1061q23 0 39 -16t16 -39v-234q0 -23 -16 -39t-39 -16h-187q-23 0 -39 -16t-16 -39v-924q0 -23 -16 -39t-39 -16h-234q-23 0 -39 16t-16 39v924q0 23 -16 39t-39 16h-187q-23 0 -39 16t-16 39v234q0 23 16 39t39 16h187q23 0 39 16t16 39v262q0 23 16 39.5t39 16.5
h234q23 0 39 -16.5t16 -39.5v-262q0 -23 16 -39t39 -16h187z" />
    <glyph glyph-name="daggerdbl" unicode="&#x2021;" horiz-adv-x="1132" 
d="M889 717q-23 0 -39 -16t-16 -39v-252q0 -24 16 -41t39 -17h186q23 0 39 -16t16 -39v-231q0 -24 -16 -41t-39 -17h-186q-23 0 -39 -16t-16 -39v-215q0 -23 -16.5 -39t-39.5 -16h-233q-23 0 -39.5 16t-16.5 39v215q0 23 -16 39t-39 16h-186q-23 0 -39 17t-16 41v231
q0 23 16 39t39 16h186q23 0 39 17t16 41v252q0 23 -16 39t-39 16h-186q-23 0 -39 16t-16 39v234q0 23 16 39t39 16h186q23 0 39 16t16 39v262q0 23 16.5 39.5t39.5 16.5h233q23 0 39.5 -16.5t16.5 -39.5v-262q0 -23 16 -39t39 -16h186q23 0 39 -16t16 -39v-234
q0 -23 -16 -39t-39 -16h-186z" />
    <glyph glyph-name="bullet" unicode="&#x2022;" horiz-adv-x="632" 
d="M379 465q-104 0 -178 74t-74 178t74 178t178 74t178 -74t74 -178t-74 -178t-178 -74z" />
    <glyph glyph-name="ellipsis" unicode="&#x2026;" horiz-adv-x="1685" 
d="M862 2q-74 0 -126 52t-52 126q0 75 52 127.5t126 52.5q75 0 127.5 -52.5t52.5 -127.5q0 -74 -52.5 -126t-127.5 -52zM1595 53q-53 -53 -126.5 -53t-127.5 53q-53 54 -53 127.5t53 126.5q54 53 127.5 53t126.5 -53t53 -126.5t-53 -127.5zM295 8q-72 -17 -136 22t-81 111
t22 135t111 80t136 -22t81 -111t-22 -135t-111 -80z" />
    <glyph glyph-name="perthousand" unicode="&#x2030;" horiz-adv-x="3291" 
d="M2099 1434q38 0 51.5 -36t-14.5 -61l-1431 -1323q-14 -14 -39 -14h-320q-38 0 -51.5 35t14.5 61l1432 1323q19 15 37 15h321zM1081 1118q0 -98 -20 -161.5t-72 -108.5t-143 -64.5t-232 -19.5t-231.5 19.5t-143 64.5t-72.5 108.5t-20 161.5v0q0 99 20 162.5t72.5 108.5
t143 64.5t231.5 19.5t232 -19.5t143 -64.5t72 -108.5t20 -162.5v0zM428 1118q0 -33 1.5 -48.5t10.5 -35.5t28 -28t55 -14.5t91 -6.5q56 0 92 6t55.5 14.5t29 28.5t11 35.5t1.5 48.5v0q0 33 -1.5 48.5t-11 36t-29 29t-56 15t-91.5 6.5t-91 -6.5t-55 -15t-28 -29t-10.5 -35.5
t-1.5 -49v0zM1841 670q113 0 193.5 -13.5t134.5 -39t85 -70t43.5 -99.5t12.5 -133v-2q0 -78 -12.5 -133t-43.5 -99t-85 -70t-134.5 -39t-193.5 -13q-141 0 -231.5 19.5t-143 64.5t-72.5 108.5t-20 161.5v2q0 98 20 161.5t72.5 108.5t143 64.5t231.5 20.5zM2030 313
q0 24 -0.5 35.5t-4 29.5t-10.5 26t-20.5 18.5t-34 15t-50 8t-69.5 3.5q-35 0 -61.5 -2t-46 -7.5t-33 -10t-22 -15.5t-13.5 -18.5t-7 -24t-2.5 -27t-0.5 -31.5v0q0 -28 1 -40.5t6 -31.5t16.5 -27.5t31.5 -17.5t52.5 -12.5t78.5 -3.5q55 0 91.5 6.5t56 15t29 28.5t11 35.5
t1.5 47.5zM2830 670q113 0 193 -13.5t133.5 -39t84.5 -69.5t43.5 -99.5t12.5 -133.5v-2q0 -98 -20 -161.5t-72.5 -108.5t-143 -64.5t-231.5 -19.5t-232 19.5t-143 64.5t-72 108.5t-20 161.5v2q0 98 20 161.5t72 108.5t143 64.5t232 20.5zM3017 313q0 24 -0.5 35.5t-4 29.5
t-10.5 26t-20.5 18.5t-33.5 15t-49.5 8t-68.5 3.5q-46 0 -79 -3.5t-53.5 -13t-32 -18t-16.5 -28t-6 -32.5t-1 -41v0q0 -28 1 -40.5t6 -31.5t16.5 -27.5t32 -17.5t53.5 -12.5t79 -3.5q39 0 68.5 3.5t49.5 7.5t33.5 14.5t20.5 18.5t10.5 25.5t4 29t0.5 34.5z" />
    <glyph glyph-name="guilsinglleft" unicode="&#x2039;" horiz-adv-x="751" 
d="M428 762q-23 -17 -23 -45t23 -45l287 -207q22 -16 22 -45v-246q0 -34 -30 -49.5t-58 4.5l-459 330q-22 16 -22 45v426q0 29 22 45l459 330q28 20 58 4.5t30 -49.5v-246q0 -28 -22 -47z" />
    <glyph glyph-name="guilsinglright" unicode="&#x203a;" horiz-adv-x="751" 
d="M739 975q23 -16 23 -45v-426q0 -29 -23 -45l-458 -330q-28 -20 -58 -4.5t-30 49.5v246q0 29 22 45l287 207q23 17 23 45t-23 45l-287 205q-22 19 -22 47v246q0 34 30 49.5t58 -4.5z" />
    <glyph glyph-name="fraction" unicode="&#x2044;" horiz-adv-x="2414" 
d="M2318 1434q39 0 52 -37.5t-17 -63.5l-1634 -1321q-15 -12 -35 -12h-424q-39 0 -52 36.5t17 61.5l1635 1323q16 13 34 13h424z" />
    <glyph glyph-name="euro" unicode="&#x20ac;" horiz-adv-x="2316" 
d="M2263 477q17 0 28.5 -12t10.5 -29q-5 -87 -15.5 -148.5t-37.5 -113.5t-56.5 -84.5t-92 -58t-123.5 -38t-171.5 -20.5t-216 -10t-276.5 -2q-169 0 -273 2t-215 9.5t-171.5 20t-124 36.5t-93 56t-57 82t-38.5 110t-17 145q-1 15 -12.5 25t-26.5 10h-82q-17 0 -28 11.5
t-11 27.5v108q0 17 11 28t28 11h73q17 0 28 11.5t11 27.5v35v35q0 16 -11 27.5t-28 11.5h-73q-17 0 -28 10.5t-11 27.5v109q0 16 11 27.5t28 11.5h82q15 0 26.5 10t12.5 25q6 84 17 144.5t38.5 110.5t57.5 82t93 56t124 36.5t171.5 20t214.5 9.5t273 2q170 0 275.5 -2
t216 -10t172 -21t124 -38t92 -58t56.5 -85t37.5 -113.5t15.5 -148.5q1 -17 -10.5 -29t-28.5 -12h-362q-14 0 -25 9t-12 24q-7 39 -22 62.5t-43.5 37.5t-75.5 19t-113 6.5t-160 0.5q-28 -1 -44 -1h-43h-50h-333q-134 -5 -177 -38q-22 -18 -33 -48q-6 -20 5.5 -35.5
t31.5 -15.5h610q19 0 30.5 -14t8.5 -31l-16 -109q-1 -14 -12 -23t-25 -9h-610q-15 0 -27 -12t-12 -27v-35v-35q0 -15 12 -27t27 -12h575q19 0 30.5 -13t8.5 -30l-16 -108q-1 -15 -12 -25t-25 -10h-547q-20 0 -31.5 -15.5t-5.5 -35.5q24 -63 99.5 -75.5t313.5 -11.5h130
q54 0 146 -1q249 -1 320 17t85 109q2 14 13 23.5t26 9.5h360z" />
    <glyph glyph-name="trademark" unicode="&#x2122;" horiz-adv-x="591" 
d="M66 1403v35h223v-35h-86v-125h-49v125h-88zM512 1438h72v-160h-49v113l-68 -113h-49l-68 113v-113h-49v160h72l69 -115z" />
    <glyph glyph-name="minus" unicode="&#x2212;" horiz-adv-x="1267" 
d="M1210 893q23 0 39.5 -16t16.5 -39v-234q0 -23 -16.5 -39t-39.5 -16h-1036q-23 0 -39 16t-16 39v234q0 23 16 39t39 16h1036z" />
    <glyph glyph-name="zero.alt1" unicode="&#xf000;" horiz-adv-x="2213" 
d="M1219 1473q160 0 260.5 -1t208 -9.5t167.5 -16.5t124.5 -33.5t94.5 -47.5t62.5 -73t42.5 -95t20.5 -127t11.5 -156.5t1 -196.5t-1 -196t-11.5 -157t-20.5 -127.5t-42 -94.5t-62 -72.5t-94.5 -48t-124.5 -34t-167.5 -16t-208 -9.5t-261.5 -1t-261.5 1t-209 9.5
t-168.5 16.5t-125 33.5t-95 47.5t-62.5 73t-43 95t-21 127t-11.5 156.5t-1 196.5q0 122 1 196t12 157t21 127.5t43 95t63 72.5t95 47.5t125 33.5t168 16.5t208.5 9.5t261.5 1zM1409 1012q23 14 27 38.5t-12.5 44t-43.5 19.5h-665q-23 0 -39.5 -16t-16.5 -39v-383
q0 -33 28 -49.5t56 0.5zM1026 422q-37 -22 -25.5 -62.5t52.5 -40.5h665q23 0 39.5 16.5t16.5 39.5v383q0 32 -27.5 48t-56.5 1z" />
    <glyph glyph-name="one.alt1" unicode="&#xf001;" horiz-adv-x="1009" 
d="M463 1425q12 9 26 9h369q23 0 39 -16.5t16 -39.5v-1321q0 -23 -16 -40t-39 -17h-328q-23 0 -39 16t-16 39v867q0 33 -28 49.5t-56 -0.5l-115 -66q-20 -12 -41.5 -5.5t-33.5 26.5l-123 213q-12 20 -6 43t26 35z" />
    <glyph glyph-name="two.alt1" unicode="&#xf002;" horiz-adv-x="2172" 
d="M649 399q-1 -17 10.5 -29t28.5 -12h1428q23 0 39 -16t16 -39v-248q0 -23 -16 -39t-39 -16h-1852q-23 0 -39 16t-16 39v273q0 71 1.5 109t10.5 87t24 72.5t46.5 55t74 47t109.5 35t150.5 32.5t199.5 27l428 45q245 23 283 28l145 17q22 1 36 17t14 38v121q0 23 -16.5 39
t-39.5 16h-956q-23 0 -39 -16t-16 -39v-15q0 -23 -16.5 -39t-39.5 -16h-323q-25 0 -41.5 17.5t-14.5 42.5q3 65 13 115t27.5 92t49.5 72.5t69.5 54t98.5 39t125 26t159.5 16t193 7.5t233.5 2q157 0 270.5 -3.5t216.5 -14t171 -27t126 -44.5t91.5 -64t57 -89t32 -116
t8.5 -148q0 -77 -1.5 -116t-17.5 -88.5t-36 -71t-75 -52.5t-115 -44t-175 -33.5t-236.5 -34t-316.5 -33.5q-210 -20 -358 -39l-156 -17q-15 -1 -25 -12.5t-10 -26.5z" />
    <glyph glyph-name="three.alt1" unicode="&#xf003;" horiz-adv-x="2174" 
d="M2058 688q103 -83 103 -330q0 -194 -96 -279q-91 -81 -318 -103q-153 -15 -576 -15q-424 0 -569 14q-228 22 -320 101q-96 91 -98 282v25q0 23 16.5 39t39.5 16h329q23 0 39.5 -16t16.5 -39v-8q0 -23 16 -39.5t39 -16.5h985q23 0 39 16.5t16 39.5v127q0 23 -16 39t-39 16
h-649q-23 0 -39 16t-16 39v209q0 23 16 39.5t39 16.5h649q23 0 39 16t16 39v127q0 23 -16 39t-39 16h-985q-23 0 -39 -16t-16 -39v-8q0 -23 -16.5 -39.5t-39.5 -16.5h-311q-23 0 -39 16.5t-16 39.5v24q0 194 92 279q87 81 305 104q145 15 560 15h1h1h9q420 0 564 -14
q223 -22 312 -102q93 -91 95 -282q0 -123 -17.5 -192t-68.5 -109q-22 -17 -21 -43t23 -43z" />
    <glyph glyph-name="four.alt1" unicode="&#xf004;" horiz-adv-x="2158" 
d="M2085 514q23 0 40 -16t17 -39v-207q0 -24 -16.5 -40.5t-40.5 -16.5h-39q-23 0 -39 -16.5t-16 -39.5v-82q0 -23 -16.5 -40t-39.5 -17h-327q-23 0 -39.5 16t-16.5 39v84q0 23 -16 39.5t-39 16.5h-1315q-23 0 -39 16t-16 41v231q0 29 25 47l1386 895q18 9 31 9h364
q23 0 40.5 -16.5t17.5 -39.5v-809q0 -23 16 -39t39 -16h39zM913 616q-35 -23 -22.5 -62.5t53.5 -39.5h553q23 0 39 16t16 39v355q0 34 -29 50t-57 -3z" />
    <glyph glyph-name="five.alt1" unicode="&#xf005;" horiz-adv-x="2197" 
d="M1554 942q73 0 124.5 -1.5t113 -7.5t103.5 -16t88.5 -28t77.5 -43.5t60 -62.5t46 -84.5t27 -109.5t10 -138q0 -87 -11.5 -154t-42.5 -118t-66.5 -86.5t-103.5 -60t-132 -38.5t-173 -21.5t-206.5 -9.5t-251.5 -2q-113 0 -193.5 1t-168.5 4.5t-148 9.5t-124 16.5t-106 25
t-83.5 35t-67.5 47t-47.5 61t-32.5 76t-15 93.5q-1 25 15 42t41 17h366q15 0 25 -10t10 -25t11 -25t26 -10h983q23 0 39 16.5t16 39.5v192q0 23 -16 39.5t-39 16.5h-985q-14 0 -24.5 -10t-10.5 -23q0 -14 -10 -23.5t-23 -9.5h-370q-23 0 -39.5 16t-16.5 39v766
q0 23 16.5 39.5t39.5 16.5h1859q23 0 40.5 -16.5t17.5 -39.5v-248q0 -23 -17 -39t-41 -16h-1417q-24 0 -40.5 -16.5t-16.5 -40.5q2 -16 2 -49q0 -25 19 -41.5t44 -12.5q198 27 819 27z" />
    <glyph glyph-name="six.alt1" unicode="&#xf006;" horiz-adv-x="2191" 
d="M1618 877q93 0 159 -4.5t130.5 -16.5t106.5 -34t79.5 -57.5t58 -87t32 -121t11.5 -161.5q0 -81 -10.5 -141.5t-44 -106.5t-65 -77.5t-105.5 -52t-130 -32t-175 -17t-205 -6.5t-252 -1q-430 0 -569 13q-205 20 -290 90q-83 68 -109 227q-19 120 -19 426q0 326 26 451
q30 149 120 213q93 65 316 82q133 10 525 10q427 0 568 -13q213 -21 301 -94.5t105 -244.5q4 -31 5 -68q0 -24 -16.5 -41t-40.5 -17h-318q-23 0 -40 16.5t-17 39.5v8q0 23 -16 39t-39 16h-987q-24 0 -41 -16t-17 -39v-164q0 -26 20 -42.5t46 -12.5q128 21 330.5 29t566.5 8z
M1755 375v127q0 23 -16 39t-39 16h-983q-25 0 -41.5 -16t-16.5 -39v-127q0 -23 16.5 -39.5t41.5 -16.5h217h274h273h219q23 0 39 16.5t16 39.5z" />
    <glyph glyph-name="seven.alt1" unicode="&#xf007;" horiz-adv-x="2066" 
d="M2021 1434q23 0 39.5 -16.5t16.5 -39.5v-237q0 -25 -21 -43l-1339 -1086q-15 -12 -35 -12h-424q-39 0 -52 36.5t17 61.5l1131 918q30 25 17 61.5t-52 36.5h-1137q-23 0 -39 17t-16 40v207q0 23 16 39.5t39 16.5h1839z" />
    <glyph glyph-name="eight.alt1" unicode="&#xf008;" 
d="M2089 686q56 -45 78 -125.5t22 -202.5q0 -194 -96 -280q-91 -80 -317 -102q-154 -15 -576 -15q-424 0 -569 14q-228 22 -320 101q-96 91 -98 282q0 122 22 202.5t78 125.5q22 17 22 45t-22 45q-49 42 -65.5 109t-16.5 190q0 195 92 280q88 80 307 103q154 15 570 15
q420 0 564 -14q223 -22 312 -102q93 -91 95 -282q0 -121 -17 -189t-67 -110q-22 -17 -21 -45t23 -45zM731 1114q-26 0 -43.5 -17t-17.5 -42v-119q0 -25 17.5 -42t43.5 -17h940q25 0 42.5 17t17.5 42v119q0 25 -17.5 42t-42.5 17h-940zM1688 319q26 0 43.5 17.5t17.5 42.5
v119q0 25 -17.5 42t-43.5 17h-975q-25 0 -42.5 -17t-17.5 -42v-119q0 -25 17.5 -42.5t42.5 -17.5h975z" />
    <glyph glyph-name="nine.alt1" unicode="&#xf009;" horiz-adv-x="2191" 
d="M786 557q-72 0 -126 2.5t-108.5 9t-93.5 18t-77 30t-63.5 45t-47.5 61.5t-34.5 81.5t-19.5 104.5t-7 129q0 81 10.5 141.5t44 107t65 77.5t105 52t130.5 32.5t175 17t205 6.5t252 1q430 0 569 -13q205 -20 290 -90q83 -68 109 -227q19 -120 19 -426q0 -326 -26 -451
q-30 -149 -120 -213q-93 -65 -316 -82q-133 -10 -525 -10q-427 0 -568 13q-213 21 -301 94.5t-105 244.5q-4 31 -5 68q0 24 16.5 40.5t40.5 16.5h320q23 0 39 -16t16 -39v-8q0 -23 16.5 -39.5t39.5 -16.5h989q23 0 39 16.5t16 39.5v164q0 26 -20 42.5t-46 12.5
q-128 -21 -330.5 -29t-566.5 -8zM649 1059v-127q0 -23 16.5 -39t39.5 -16h985q23 0 39 16t16 39v127q0 23 -16 39t-39 16h-220h-274h-272h-219q-23 0 -39.5 -16t-16.5 -39z" />
    <glyph glyph-name="nonmarkingreturn.1" horiz-adv-x="1079" 
 />
    </font>
</defs>
</svg>
